<svg viewBox="0 0 34 34" fill="none" xmlns="http://www.w3.org/2000/svg">
    <path d="M26.356 32.093c4.299-5.056 6.711-21.106 6.75-27.935.003-.986-.344-1.864-1.003-2.54A3.76 3.76 0 0 0 29.536.51C23.78.343 6.76 2.29 1.311 6.653.438 7.349.193 7.879.081 8.213c-.158.478-.088.847.213 1.154 1.249 1.278 5.866 1.024 10.337.78 5.087-.279 9.894-.54 11.51 1.115 1.68 1.717 1.305 6.842.944 11.793-.32 4.355-.645 8.86.54 10.072.354.363.747.303 1.006.223.593-.178 1.14-.578 1.722-1.261l.003.004Z"
          fill="#000" />
</svg>