<svg viewBox="0 0 219 69" fill="none" xmlns="http://www.w3.org/2000/svg">
    <path fill-rule="evenodd" clip-rule="evenodd"
          d="M9.74416 17.5024C8.98906 16.8386 8.20064 16.4126 7.27897 17.1484L5.81318 18.6198C6.52387 18.8743 6.61826 19.0845 7.12906 19.5657L16.0126 28.317L17.2896 27.0392C18.0281 26.0988 17.545 25.2469 16.8288 24.5112L9.73861 17.5079L9.74416 17.5024ZM17.7338 17.1096L16.1181 15.4833H16.1015L15.1965 14.5927C13.3753 12.8004 10.416 12.3578 8.72255 14.1114L8.42273 14.4101L8.18399 14.6535L8.03963 14.7973L6.67933 16.1582L1.84334 21.0151L0 22.8682L0.816178 23.6371C1.73785 22.9014 2.52626 23.3274 3.28137 23.9856C8.19509 28.8426 13.0755 33.7437 17.967 38.6227C18.5333 39.3308 18.7443 40.0278 18.1169 40.8189L18.8942 41.6265L21.1707 39.3419C22.9196 37.6436 22.4477 34.6952 20.6376 32.8974L16.8066 29.1136L19.6327 26.2758L19.777 26.1264L20.3156 25.5843C22.0646 23.8861 21.5926 20.9376 19.7826 19.1398L18.8776 18.2436V18.2271L17.7338 17.1096Z"
    />
    <path fill-rule="evenodd" clip-rule="evenodd"
          d="M14.6475 51.9674C15.4026 52.6312 16.1911 53.0571 17.1127 52.3214L18.5785 50.85C17.8678 50.5955 17.7734 50.3853 17.2626 49.904L8.37908 41.1527L7.10207 42.4306C6.36362 43.371 6.84666 44.2229 7.5629 44.9586L14.6531 51.9618L14.6475 51.9674ZM6.65789 52.3601L8.27359 53.9865H8.29024L9.19526 54.8771C11.0164 56.6694 13.9757 57.1119 15.6692 55.3584L15.969 55.0596L16.2077 54.8162L16.3521 54.6724L17.7124 53.3116L22.5428 48.4547L24.3862 46.6015L23.57 45.8326C22.6483 46.5684 21.8599 46.1424 21.1048 45.4841C16.1911 40.6272 11.3107 35.7261 6.41914 30.847C5.85281 30.139 5.64183 29.4419 6.26923 28.6509L5.49192 27.8433L3.2155 30.1279C1.46655 31.8261 1.93849 34.7746 3.74852 36.5724L7.57956 40.3562L4.75347 43.194L4.60911 43.3433L4.07055 43.8854C2.3216 45.5837 2.79354 48.5321 4.60356 50.33L5.50858 51.2261V51.2427L6.65233 52.3601H6.65789Z"
    />
    <path d="M117.855 35.247C117.855 34.1337 118.076 33.1938 118.519 32.4205C118.963 31.6472 119.579 31.0205 120.368 30.5406C121.158 30.0606 122.086 29.7339 123.125 29.514C123.741 29.3806 124.42 29.3206 125.14 29.314C128.478 29.3206 132.647 29.174 134.503 32.4205C134.89 33.0938 135.105 33.8937 135.133 34.787C135.154 34.9403 135.16 35.0937 135.16 35.2537C135.16 36.3669 134.953 37.3002 134.537 38.0668C134.122 38.8268 133.54 39.4401 132.785 39.9067C132.03 40.3734 131.13 40.7067 130.071 40.9134C129.011 41.12 127.82 41.2267 126.504 41.2267C125.299 41.2267 124.323 41.2933 123.582 41.42C122.841 41.5467 122.474 41.8733 122.474 42.3866C122.474 42.8266 122.841 43.1066 123.582 43.2199C124.323 43.3399 125.292 43.4066 126.504 43.4332C127.875 43.4599 129.156 43.5999 130.348 43.8599C131.539 44.1199 132.584 44.4998 133.471 44.9998C134.357 45.5065 135.064 46.1398 135.583 46.8997C136.109 47.6597 136.365 48.5463 136.365 49.5529C136.365 50.6929 136.116 51.6395 135.618 52.3994C135.119 53.1594 134.426 53.7727 133.547 54.2393C132.66 54.706 131.615 55.0393 130.403 55.246C129.198 55.4526 127.896 55.5593 126.497 55.5593C125.098 55.5593 123.769 55.4526 122.571 55.246C121.38 55.0393 120.334 54.706 119.447 54.2393C118.561 53.7727 117.868 53.1594 117.377 52.3994C116.878 51.6395 116.629 50.6862 116.629 49.5529C116.629 48.853 116.788 48.2263 117.114 47.673C117.432 47.1197 117.862 46.6331 118.381 46.2198C118.907 45.8064 119.489 45.4598 120.133 45.1731C120.777 44.8865 121.421 44.6665 122.065 44.5132C121.553 44.3598 121.123 44.1132 120.777 43.7799C120.431 43.4466 120.251 42.9799 120.251 42.3866C120.251 41.5067 120.784 40.86 121.864 40.4467C120.735 40.0601 119.787 39.3934 119.004 38.4468C118.229 37.5069 117.834 36.4403 117.834 35.247H117.855ZM124.939 45.0131C124.053 45.3731 123.353 45.9131 122.848 46.6197C122.335 47.333 122.079 48.3063 122.079 49.5462C122.079 51.0195 122.481 52.0995 123.284 52.7861C124.087 53.4727 125.161 53.8127 126.504 53.8127C127.848 53.8127 128.921 53.4727 129.724 52.7861C130.528 52.0995 130.929 51.0195 130.929 49.5462C130.929 48.3863 130.555 47.4264 129.8 46.6797C129.046 45.9331 128.055 45.4398 126.823 45.2065L124.932 45.0131H124.939ZM129.731 35.247C129.731 33.7737 129.426 32.6538 128.824 31.8938C128.222 31.1339 127.446 30.7472 126.511 30.7472C125.576 30.7472 124.801 31.1005 124.198 31.8138C123.596 32.5271 123.291 33.6671 123.291 35.247C123.291 36.8269 123.596 37.9868 124.198 38.6601C124.801 39.3334 125.576 39.6668 126.511 39.6668C127.446 39.6668 128.222 39.3334 128.824 38.6601C129.426 37.9868 129.731 36.8536 129.731 35.247Z"
    />
    <path d="M183.523 29.7578C182.488 29.7578 181.658 29.9396 181.025 30.3031C180.553 30.5791 180.166 30.8416 179.85 31.0974C179.85 31.158 179.85 31.2185 179.85 31.2724L179.836 41.6386V44.2301C180.138 44.4657 180.462 44.6609 180.821 44.8157C181.123 44.9706 181.482 45.1119 181.904 45.2264C182.327 45.3408 182.798 45.4014 183.319 45.4014C184.086 45.4014 184.726 45.2062 185.24 44.8157C185.76 44.4253 186.182 43.8734 186.506 43.1733C186.837 42.4665 187.062 41.6386 187.203 40.6895C187.336 39.7336 187.407 38.697 187.407 37.5796C187.407 36.4622 187.336 35.4189 187.203 34.4697C187.069 33.5139 186.844 32.686 186.527 31.9859C186.211 31.2791 185.809 30.7339 185.317 30.3435C184.824 29.9531 184.226 29.7578 183.516 29.7578H183.523ZM179.85 46.0072V50.8133C179.85 52.3884 179.062 53.8357 177.155 54.2463H174.523V40.6693V33.2648V28.3914V28.2433H177.155C178.112 28.2298 178.907 28.7751 179.378 29.5694C179.47 29.5021 179.561 29.4415 179.66 29.3742C179.998 29.1386 180.399 28.9164 180.849 28.7078C181.299 28.4991 181.82 28.3308 182.404 28.1962C182.988 28.0683 183.635 28.001 184.346 28.001C185.767 28.001 187.013 28.25 188.089 28.7414C189.166 29.2395 190.066 29.9127 190.791 30.7743C191.516 31.6359 192.051 32.6523 192.409 33.8303C192.761 35.0015 192.944 36.2603 192.944 37.5863C192.944 38.9124 192.768 40.1712 192.409 41.3424C192.058 42.5136 191.509 43.5368 190.77 44.3984C190.031 45.26 189.116 45.9399 188.012 46.4313C186.907 46.9294 185.619 47.1717 184.142 47.1717C183.459 47.1717 182.861 47.1111 182.341 46.9967C181.82 46.8822 181.37 46.7409 180.99 46.5861C180.553 46.4313 180.173 46.236 179.85 46.0072Z"
    />
    <path d="M162.128 28.001C164.822 28.001 166.899 28.6988 168.373 30.0875C169.84 31.4832 170.578 33.5973 170.578 36.437V47.2842L170.422 47.0424V47.298H168.706C167.423 47.3188 166.445 46.4897 165.899 45.329C165.282 45.8402 164.687 46.317 164.276 46.6002C163.893 46.8973 163.383 47.146 162.752 47.3602C162.121 47.5744 161.362 47.685 160.483 47.685C158.201 47.685 156.464 47.1806 155.266 46.1788C154.068 45.177 153.473 43.8711 153.473 42.2613C153.473 41.2941 153.636 40.4442 153.969 39.7119C154.302 38.9726 154.883 38.3439 155.72 37.8257C156.556 37.3006 157.69 36.9068 159.122 36.6442C160.554 36.3748 162.376 36.2435 164.602 36.2435H165.219C165.219 33.8322 164.878 32.1602 164.191 31.2206C163.503 30.281 162.539 29.8112 161.306 29.8112C160.838 29.8112 160.391 29.8595 159.966 29.9493C159.541 30.0461 159.151 30.2257 158.789 30.4882C158.435 30.7577 158.116 31.1239 157.839 31.5937C157.563 32.0635 157.343 32.6715 157.18 33.4246H154.912C154.912 32.7268 154.961 32.0152 155.053 31.2966C155.153 30.5712 155.443 29.9424 155.94 29.4104C156.436 28.8715 157.251 28.5053 158.392 28.305C159.533 28.1046 160.774 28.001 162.121 28.001H162.128ZM165.219 38.0468H164.602C162.624 38.0468 161.199 38.3991 160.334 39.1039C159.47 39.8086 159.037 40.8726 159.037 42.3097C159.037 43.4428 159.278 44.3064 159.76 44.8868C160.242 45.4671 160.895 45.7573 161.717 45.7573C162.348 45.7573 162.879 45.626 163.305 45.3497C163.73 45.0802 164.091 44.7831 164.396 44.4584C164.729 44.0784 164.999 43.6362 165.219 43.118V38.0399V38.0468Z"
    />
    <path d="M152.07 30.3371C152.126 30.4488 152.154 30.5079 152.154 30.5079L150.086 31.9991C148.756 30.2123 146.027 30.0743 144.141 31.1582V42.3323C144.141 44.4016 142.839 46.4051 140.757 46.3723H138.996V28.0051H140.757C141.857 27.9919 142.804 28.5306 143.445 29.3452C146.076 27.6569 150.553 27.1314 152.063 30.3305L152.07 30.3371Z"
    />
    <path d="M105.546 28.001C108.24 28.001 110.317 28.6988 111.791 30.0875C113.258 31.4832 113.996 33.5973 113.996 36.437V47.2842L113.84 47.0424V47.298H112.124C110.841 47.3188 109.863 46.4897 109.317 45.329C108.7 45.8402 108.105 46.317 107.694 46.6002C107.311 46.8973 106.801 47.146 106.17 47.3602C105.539 47.5744 104.78 47.685 103.901 47.685C101.619 47.685 99.882 47.1806 98.6841 46.1788C97.4861 45.177 96.8906 43.8711 96.8906 42.2613C96.8906 41.2941 97.0537 40.4442 97.3868 39.7119C97.72 38.9726 98.3013 38.3439 99.1377 37.8257C99.9742 37.3006 101.108 36.9068 102.54 36.6442C103.972 36.3748 105.794 36.2435 108.02 36.2435H108.637C108.637 33.8322 108.296 32.1602 107.609 31.2206C106.921 30.281 105.957 29.8112 104.724 29.8112C104.256 29.8112 103.809 29.8595 103.384 29.9493C102.959 30.0461 102.569 30.2257 102.207 30.4882C101.853 30.7577 101.534 31.1239 101.257 31.5937C100.981 32.0635 100.761 32.6715 100.598 33.4246H98.3296C98.3296 32.7268 98.3792 32.0152 98.4714 31.2966C98.5706 30.5712 98.8613 29.9424 99.3575 29.4104C99.8537 28.8715 100.669 28.5053 101.81 28.305C102.951 28.1046 104.192 28.001 105.539 28.001H105.546ZM108.637 38.0468H108.02C106.042 38.0468 104.617 38.3991 103.752 39.1039C102.888 39.8086 102.455 40.8726 102.455 42.3097C102.455 43.4428 102.696 44.3064 103.178 44.8868C103.66 45.4671 104.312 45.7573 105.135 45.7573C105.766 45.7573 106.297 45.626 106.723 45.3497C107.148 45.0802 107.509 44.7831 107.814 44.4584C108.147 44.0784 108.417 43.6362 108.637 43.118V38.0399V38.0468Z"
    />
    <path d="M95.4921 30.3371C95.5478 30.4488 95.5756 30.5079 95.5756 30.5079L93.508 31.9991C92.1853 30.2123 89.4493 30.0743 87.5627 31.1582V42.3323C87.5627 44.4016 86.2608 46.4051 84.1793 46.3723H82.418V28.0051H84.1793C85.2792 27.9919 86.226 28.5306 86.8665 29.3452C89.505 27.6569 93.9745 27.1314 95.4851 30.3305L95.4921 30.3371Z"
    />
    <path d="M68.71 28.001C71.4037 28.001 73.4806 28.6988 74.9551 30.0875C76.4224 31.4832 77.1597 33.5973 77.1597 36.437V47.2842L77.0037 47.0424V47.298H75.2883C74.0052 47.3188 73.027 46.4897 72.4811 45.329C71.8644 45.8402 71.269 46.317 70.8578 46.6002C70.475 46.8973 69.9647 47.146 69.3338 47.3602C68.7029 47.5744 67.9444 47.685 67.0654 47.685C64.7828 47.685 63.0461 47.1806 61.8481 46.1788C60.6501 45.177 60.0547 43.8711 60.0547 42.2613C60.0547 41.2941 60.2177 40.4442 60.5509 39.7119C60.8841 38.9726 61.4653 38.3439 62.3018 37.8257C63.1383 37.3006 64.2725 36.9068 65.7044 36.6442C67.1363 36.3748 68.9581 36.2435 71.1839 36.2435H71.8006C71.8006 33.8322 71.4604 32.1602 70.7728 31.2206C70.0852 30.281 69.1211 29.8112 67.8877 29.8112C67.4198 29.8112 66.9732 29.8595 66.5479 29.9493C66.1226 30.0461 65.7327 30.2257 65.3712 30.4882C65.0168 30.7577 64.6978 31.1239 64.4213 31.5937C64.1449 32.0635 63.9251 32.6715 63.7621 33.4246H61.4937C61.4937 32.7268 61.5433 32.0152 61.6355 31.2966C61.7347 30.5712 62.0253 29.9424 62.5215 29.4104C63.0178 28.8715 63.833 28.5053 64.9742 28.305C66.1155 28.1046 67.356 28.001 68.7029 28.001H68.71ZM71.8006 38.0468H71.1839C69.2062 38.0468 67.7813 38.3991 66.9165 39.1039C66.0517 39.8086 65.6193 40.8726 65.6193 42.3097C65.6193 43.4428 65.8603 44.3064 66.3423 44.8868C66.8244 45.4671 67.4765 45.7573 68.2988 45.7573C68.9297 45.7573 69.4614 45.626 69.8867 45.3497C70.312 45.0802 70.6735 44.7831 70.9783 44.4584C71.3115 44.0784 71.5809 43.6362 71.8006 43.118V38.0399V38.0468Z"
    />
    <path d="M196.901 21.4404H198.507C199.197 21.4404 199.77 21.5293 200.235 21.7002C200.699 21.8711 201.068 22.1583 201.348 22.5548C201.628 22.9513 201.82 23.4845 201.922 24.1477C202.025 24.8108 202.079 25.6312 202.079 26.6088V30.1091C202.448 29.8425 202.858 29.5895 203.309 29.3571C203.678 29.1725 204.129 29.0016 204.661 28.8375C205.194 28.6803 205.789 28.5982 206.451 28.5982C207.353 28.5982 208.255 28.7076 209.149 28.9196C210.051 29.1315 210.857 29.5075 211.574 30.0544C212.292 30.5945 212.872 31.3397 213.323 32.2831C213.774 33.2265 214 34.4229 214 35.8791V47.6857H208.835V36.0227C208.835 34.9835 208.733 34.1153 208.535 33.4248C208.337 32.7343 208.07 32.1669 207.742 31.7294C207.414 31.2918 207.032 30.9773 206.608 30.7859C206.185 30.6013 205.734 30.5056 205.256 30.5056C204.805 30.5056 204.388 30.5808 204.006 30.7244C203.623 30.868 203.282 31.0389 202.995 31.2235C202.674 31.4422 202.373 31.6678 202.079 31.9071V47.6789H196.915L196.895 21.4404H196.901Z"
    />
    <path d="M47.871 21.4404C48.4597 21.4404 49.1453 21.4679 49.9278 21.5228C50.7034 21.5777 51.4998 21.7012 52.3031 21.9001C53.1064 22.0991 53.8959 22.3736 54.6576 22.7166C55.4194 23.0597 56.1119 23.5332 56.7282 24.1301C57.3446 24.727 57.8362 25.4612 58.1964 26.3257C58.5565 27.1903 58.7365 28.2332 58.7365 29.4545C58.7365 30.6004 58.5565 31.5815 58.1964 32.4049C57.8362 33.2283 57.3584 33.9281 56.7698 34.4976C56.1812 35.0671 55.5233 35.5268 54.7961 35.8768C54.069 36.2198 53.3557 36.4874 52.6424 36.6727C51.9291 36.8579 51.2574 36.9815 50.6272 37.0295C49.997 37.0844 49.4777 37.1118 49.076 37.1118H45.2049V37.1667V42.8274C45.2049 45.3455 43.4459 47.7264 41.036 47.6852H39V21.4473H39.3186L47.8641 21.4404H47.871ZM45.2534 23.3136V35.52H47.6702C48.3419 35.52 49.0068 35.4239 49.6646 35.2387C50.3225 35.0534 50.9042 34.7172 51.4167 34.2438C51.9291 33.7635 52.3377 33.1185 52.6424 32.3089C52.9541 31.4992 53.1064 30.4837 53.1064 29.2555C53.1064 28.0274 52.9541 27.0187 52.6424 26.2228C52.3308 25.4269 51.9291 24.7888 51.4375 24.3085C50.9389 23.8282 50.3849 23.4988 49.7685 23.3136C48.522 22.9362 46.4791 22.9225 45.2603 23.3136H45.2534Z"
    />
</svg>