<svg width="128" height="32" viewBox="0 0 128 32" fill="none" xmlns="http://www.w3.org/2000/svg">
<path d="M71.6597 16.0165C71.6597 15.3544 71.7896 14.7954 72.0493 14.3354C72.3091 13.8755 72.6703 13.5028 73.1329 13.2173C73.5956 12.9319 74.1394 12.7376 74.7481 12.6067C75.1093 12.5274 75.507 12.4918 75.9291 12.4878C77.8852 12.4918 80.3283 12.4045 81.416 14.3354C81.6433 14.7359 81.7691 15.2117 81.7853 15.743C81.7975 15.8342 81.8015 15.9253 81.8015 16.0205C81.8015 16.6826 81.6798 17.2377 81.4363 17.6937C81.1928 18.1457 80.8519 18.5105 80.4095 18.788C79.9672 19.0655 79.4396 19.2638 78.8186 19.3867C78.1977 19.5096 77.4997 19.573 76.7286 19.573C76.0225 19.573 75.4502 19.6127 75.016 19.688C74.5817 19.7634 74.3666 19.9576 74.3666 20.2629C74.3666 20.5246 74.5817 20.6911 75.016 20.7585C75.4502 20.8299 76.0184 20.8696 76.7286 20.8854C77.5322 20.9013 78.2829 20.9845 78.981 21.1392C79.679 21.2938 80.2918 21.5198 80.8113 21.8172C81.3308 22.1185 81.7447 22.4952 82.0491 22.9472C82.3575 23.3992 82.5077 23.9265 82.5077 24.5252C82.5077 25.2032 82.3616 25.7662 82.0694 26.2182C81.7772 26.6702 81.3713 27.035 80.8559 27.3125C80.3365 27.59 79.7237 27.7883 79.0134 27.9112C78.3073 28.0341 77.5443 28.0975 76.7245 28.0975C75.9048 28.0975 75.1256 28.0341 74.4235 27.9112C73.7254 27.7883 73.1126 27.59 72.5932 27.3125C72.0737 27.035 71.6678 26.6702 71.3797 26.2182C71.0875 25.7662 70.9414 25.1992 70.9414 24.5252C70.9414 24.1089 71.0348 23.7362 71.2255 23.4071C71.4122 23.078 71.6638 22.7886 71.9682 22.5427C72.2766 22.2969 72.6175 22.0907 72.9949 21.9203C73.3724 21.7498 73.7498 21.6189 74.1272 21.5277C73.8269 21.4365 73.5753 21.2898 73.3724 21.0916C73.1694 20.8934 73.0639 20.6158 73.0639 20.2629C73.0639 19.7396 73.3764 19.355 74.0095 19.1092C73.348 18.8792 72.792 18.4827 72.3334 17.9197C71.8789 17.3606 71.6476 16.7263 71.6476 16.0165H71.6597ZM75.8114 21.8251C75.2919 22.0392 74.8821 22.3604 74.5858 22.7806C74.2855 23.2049 74.1353 23.7838 74.1353 24.5212C74.1353 25.3975 74.3707 26.0398 74.8415 26.4482C75.3122 26.8565 75.9413 27.0587 76.7286 27.0587C77.5159 27.0587 78.145 26.8565 78.6157 26.4482C79.0865 26.0398 79.3219 25.3975 79.3219 24.5212C79.3219 23.8313 79.1027 23.2604 78.6604 22.8163C78.218 22.3723 77.6377 22.0789 76.9153 21.9401L75.8074 21.8251H75.8114ZM78.6198 16.0165C78.6198 15.1403 78.4412 14.4742 78.0881 14.0222C77.7351 13.5702 77.2805 13.3402 76.7327 13.3402C76.1848 13.3402 75.7302 13.5504 75.3772 13.9746C75.0241 14.3989 74.8455 15.0769 74.8455 16.0165C74.8455 16.9562 75.0241 17.6461 75.3772 18.0466C75.7302 18.447 76.1848 18.6453 76.7327 18.6453C77.2805 18.6453 77.7351 18.447 78.0881 18.0466C78.4412 17.6461 78.6198 16.9721 78.6198 16.0165Z" fill="#0C0C0C"/>
<path d="M110.141 12.7522C109.535 12.7522 109.048 12.8603 108.677 13.0765C108.401 13.2406 108.174 13.3968 107.989 13.5489C107.989 13.5849 107.989 13.621 107.989 13.653L107.98 19.8184V21.3598C108.158 21.4999 108.347 21.616 108.558 21.7081C108.735 21.8002 108.945 21.8842 109.193 21.9523C109.44 22.0204 109.716 22.0564 110.021 22.0564C110.471 22.0564 110.846 21.9403 111.147 21.7081C111.452 21.4759 111.7 21.1476 111.889 20.7312C112.083 20.3109 112.215 19.8184 112.298 19.2539C112.376 18.6854 112.417 18.0689 112.417 17.4043C112.417 16.7397 112.376 16.1192 112.298 15.5547C112.219 14.9862 112.087 14.4937 111.902 14.0774C111.716 13.657 111.481 13.3327 111.193 13.1005C110.904 12.8683 110.553 12.7522 110.137 12.7522H110.141ZM107.989 22.4167V25.2752C107.989 26.2121 107.527 27.0728 106.409 27.317H104.867V19.2419V14.838V11.9395V11.8514H106.409C106.97 11.8434 107.436 12.1677 107.712 12.6401C107.766 12.6001 107.82 12.564 107.877 12.524C108.075 12.3839 108.31 12.2518 108.574 12.1276C108.838 12.0035 109.143 11.9034 109.485 11.8234C109.828 11.7473 110.207 11.7073 110.624 11.7073C111.456 11.7073 112.186 11.8554 112.817 12.1477C113.448 12.4439 113.976 12.8443 114.401 13.3567C114.825 13.8692 115.139 14.4737 115.349 15.1743C115.555 15.8709 115.662 16.6196 115.662 17.4083C115.662 18.197 115.559 18.9457 115.349 19.6423C115.143 20.3389 114.821 20.9474 114.388 21.4599C113.955 21.9723 113.419 22.3767 112.772 22.6689C112.124 22.9652 111.37 23.1093 110.504 23.1093C110.104 23.1093 109.753 23.0733 109.448 23.0052C109.143 22.9372 108.879 22.8531 108.657 22.761C108.401 22.6689 108.178 22.5528 107.989 22.4167Z" fill="#0C0C0C"/>
<path d="M97.6035 11.7073C99.1821 11.7073 100.399 12.1223 101.263 12.9483C102.123 13.7783 102.555 15.0358 102.555 16.7247V23.1763L102.464 23.0324V23.1845H101.459C100.707 23.1968 100.133 22.7037 99.8136 22.0133C99.4522 22.3174 99.1032 22.601 98.8623 22.7694C98.6379 22.9461 98.3388 23.0941 97.9691 23.2215C97.5994 23.3488 97.1549 23.4146 96.6398 23.4146C95.3021 23.4146 94.2843 23.1146 93.5823 22.5188C92.8802 21.9229 92.5312 21.1463 92.5312 20.1888C92.5312 19.6135 92.6268 19.1081 92.822 18.6725C93.0173 18.2328 93.3579 17.8589 93.8481 17.5507C94.3383 17.2384 95.003 17.0041 95.8422 16.848C96.6813 16.6877 97.7489 16.6096 99.0533 16.6096H99.4148C99.4148 15.1755 99.2154 14.1811 98.8124 13.6222C98.4094 13.0633 97.8445 12.7839 97.1216 12.7839C96.8475 12.7839 96.5858 12.8127 96.3365 12.8661C96.0873 12.9236 95.8588 13.0305 95.6469 13.1866C95.4392 13.3469 95.2523 13.5647 95.0902 13.8441C94.9282 14.1235 94.7994 14.4851 94.7039 14.9331H93.3746C93.3746 14.518 93.4036 14.0948 93.4576 13.6674C93.5158 13.2359 93.6861 12.862 93.9769 12.5456C94.2677 12.225 94.7454 12.0073 95.4143 11.8881C96.0831 11.7689 96.8101 11.7073 97.5994 11.7073H97.6035ZM99.4148 17.6822H99.0533C97.8943 17.6822 97.0593 17.8917 96.5525 18.3109C96.0457 18.73 95.7923 19.3629 95.7923 20.2176C95.7923 20.8915 95.9335 21.4052 96.216 21.7503C96.4985 22.0955 96.8807 22.2681 97.3626 22.2681C97.7323 22.2681 98.0439 22.19 98.2931 22.0257C98.5424 21.8654 98.7542 21.6887 98.9329 21.4956C99.1281 21.2696 99.286 21.0066 99.4148 20.6984V17.678V17.6822Z" fill="#0C0C0C"/>
<path d="M91.7088 13.0967C91.7414 13.1631 91.7577 13.1983 91.7577 13.1983L90.546 14.0852C89.7668 13.0225 88.1675 12.9404 87.0619 13.5851V20.231C87.0619 21.4617 86.2989 22.6534 85.0791 22.6339H84.0469V11.7097H85.0791C85.7237 11.7019 86.2785 12.0223 86.6539 12.5067C88.196 11.5026 90.8194 11.1901 91.7047 13.0928L91.7088 13.0967Z" fill="#0C0C0C"/>
<path d="M64.4473 11.7073C66.0259 11.7073 67.2431 12.1223 68.1071 12.9483C68.9671 13.7783 69.3991 15.0358 69.3991 16.7247V23.1763L69.3077 23.0324V23.1845H68.3024C67.5505 23.1968 66.9772 22.7037 66.6573 22.0133C66.2959 22.3174 65.947 22.601 65.706 22.7694C65.4817 22.9461 65.1826 23.0941 64.8129 23.2215C64.4431 23.3488 63.9986 23.4146 63.4835 23.4146C62.1459 23.4146 61.1281 23.1146 60.426 22.5188C59.724 21.9229 59.375 21.1463 59.375 20.1888C59.375 19.6135 59.4705 19.1081 59.6658 18.6725C59.861 18.2328 60.2017 17.8589 60.6919 17.5507C61.1821 17.2384 61.8468 17.0041 62.6859 16.848C63.5251 16.6877 64.5927 16.6096 65.8971 16.6096H66.2585C66.2585 15.1755 66.0591 14.1811 65.6562 13.6222C65.2532 13.0633 64.6882 12.7839 63.9654 12.7839C63.6912 12.7839 63.4295 12.8127 63.1803 12.8661C62.931 12.9236 62.7025 13.0305 62.4907 13.1866C62.2829 13.3469 62.096 13.5647 61.934 13.8441C61.772 14.1235 61.6432 14.4851 61.5476 14.9331H60.2183C60.2183 14.518 60.2474 14.0948 60.3014 13.6674C60.3595 13.2359 60.5299 12.862 60.8207 12.5456C61.1115 12.225 61.5892 12.0073 62.258 11.8881C62.9268 11.7689 63.6538 11.7073 64.4431 11.7073H64.4473ZM66.2585 17.6822H65.8971C64.7381 17.6822 63.9031 17.8917 63.3963 18.3109C62.8895 18.73 62.6361 19.3629 62.6361 20.2176C62.6361 20.8915 62.7773 21.4052 63.0598 21.7503C63.3423 22.0955 63.7245 22.2681 64.2063 22.2681C64.5761 22.2681 64.8876 22.19 65.1369 22.0257C65.3861 21.8654 65.598 21.6887 65.7766 21.4956C65.9719 21.2696 66.1297 21.0066 66.2585 20.6984V17.678V17.6822Z" fill="#0C0C0C"/>
<path d="M58.5525 13.0967C58.5852 13.1631 58.6015 13.1983 58.6015 13.1983L57.3898 14.0852C56.6146 13.0225 55.0112 12.9404 53.9056 13.5851V20.231C53.9056 21.4617 53.1427 22.6534 51.9228 22.6339H50.8906V11.7097H51.9228C52.5674 11.7019 53.1223 12.0223 53.4976 12.5067C55.0439 11.5026 57.6631 11.1901 58.5484 13.0928L58.5525 13.0967Z" fill="#0C0C0C"/>
<path d="M42.8535 11.7073C44.4321 11.7073 45.6493 12.1223 46.5134 12.9483C47.3733 13.7783 47.8053 15.0358 47.8053 16.7247V23.1763L47.714 23.0324V23.1845H46.7086C45.9567 23.1968 45.3834 22.7037 45.0636 22.0133C44.7022 22.3174 44.3532 22.601 44.1123 22.7694C43.8879 22.9461 43.5888 23.0941 43.2191 23.2215C42.8494 23.3488 42.4049 23.4146 41.8898 23.4146C40.5521 23.4146 39.5343 23.1146 38.8323 22.5188C38.1302 21.9229 37.7812 21.1463 37.7812 20.1888C37.7812 19.6135 37.8768 19.1081 38.072 18.6725C38.2673 18.2328 38.6079 17.8589 39.0981 17.5507C39.5883 17.2384 40.253 17.0041 41.0922 16.848C41.9313 16.6877 42.9989 16.6096 44.3034 16.6096H44.6648C44.6648 15.1755 44.4654 14.1811 44.0624 13.6222C43.6595 13.0633 43.0945 12.7839 42.3716 12.7839C42.0975 12.7839 41.8358 12.8127 41.5865 12.8661C41.3373 12.9236 41.1088 13.0305 40.8969 13.1866C40.6892 13.3469 40.5023 13.5647 40.3402 13.8441C40.1782 14.1235 40.0494 14.4851 39.9539 14.9331H38.6246C38.6246 14.518 38.6536 14.0948 38.7076 13.6674C38.7658 13.2359 38.9361 12.862 39.2269 12.5456C39.5177 12.225 39.9954 12.0073 40.6643 11.8881C41.3331 11.7689 42.0601 11.7073 42.8494 11.7073H42.8535ZM44.6648 17.6822H44.3034C43.1443 17.6822 42.3093 17.8917 41.8025 18.3109C41.2957 18.73 41.0423 19.3629 41.0423 20.2176C41.0423 20.8915 41.1835 21.4052 41.466 21.7503C41.7485 22.0955 42.1307 22.2681 42.6126 22.2681C42.9823 22.2681 43.2939 22.19 43.5431 22.0257C43.7924 21.8654 44.0043 21.6887 44.1829 21.4956C44.3781 21.2696 44.536 21.0066 44.6648 20.6984V17.678V17.6822Z" fill="#0C0C0C"/>
<path fill-rule="evenodd" clip-rule="evenodd" d="M7.08666 3.3144C6.5375 2.82574 5.9641 2.51218 5.2938 3.05378L4.22777 4.13698C4.74463 4.3243 4.81328 4.47904 5.18477 4.83332L11.6455 11.2755L12.5743 10.3348C13.1113 9.64256 12.76 9.01545 12.2391 8.47385L7.08263 3.31847L7.08666 3.3144ZM12.8973 3.02527L11.7223 1.82805H11.7102L11.052 1.17243C9.72751 -0.146954 7.57526 -0.472729 6.34367 0.818152L6.12562 1.03805L5.95199 1.21723L5.847 1.3231L4.8577 2.32486L1.34061 5.90023L0 7.26441L0.593584 7.83044C1.26389 7.28884 1.83728 7.6024 2.38645 8.08699C5.96007 11.6624 9.50945 15.2703 13.0669 18.862C13.4788 19.3832 13.6322 19.8963 13.1759 20.4786L13.7413 21.0732L15.3968 19.3914C16.6688 18.1412 16.3256 15.9707 15.0092 14.6473L12.223 11.8619L14.2783 9.77287L14.3833 9.66292L14.775 9.26385C16.047 8.01369 15.7037 5.84322 14.3873 4.51976L13.7291 3.86007V3.84785L12.8973 3.02527Z" fill="#0C0C0C"/>
<path fill-rule="evenodd" clip-rule="evenodd" d="M10.6531 28.6855C11.2023 29.1742 11.7757 29.4877 12.446 28.9461L13.512 27.863C12.9951 27.6756 12.9265 27.5209 12.555 27.1666L6.09423 20.7244L5.16549 21.6651C4.62844 22.3574 4.97975 22.9845 5.50065 23.5261L10.6572 28.6815L10.6531 28.6855ZM4.84245 28.9747L6.01751 30.1719H6.02962L6.68781 30.8275C8.01227 32.1469 10.1645 32.4727 11.3961 31.1818L11.6142 30.9619L11.7878 30.7827L11.8928 30.6768L12.8821 29.6751L16.3951 26.0997L17.7357 24.7355L17.1422 24.1695C16.4719 24.7111 15.8985 24.3975 15.3493 23.9129C11.7757 20.3376 8.22629 16.7296 4.66882 13.138C4.25695 12.6167 4.1035 12.1036 4.5598 11.5213L3.99448 10.9268L2.3389 12.6086C1.06694 13.8587 1.41017 16.0292 2.72655 17.3527L5.51276 20.138L3.45743 22.2271L3.35244 22.337L2.96075 22.7361C1.68879 23.9862 2.03202 26.1567 3.3484 27.4802L4.00659 28.1399V28.1521L4.83842 28.9747H4.84245Z" fill="#0C0C0C"/>
<path d="M117.981 7.80493H118.921C119.326 7.80493 119.662 7.85779 119.934 7.95944C120.206 8.0611 120.423 8.23187 120.587 8.46771C120.751 8.70354 120.863 9.0207 120.923 9.41511C120.983 9.80952 121.015 10.2975 121.015 10.8789V12.9607C121.231 12.8022 121.471 12.6517 121.736 12.5135C121.952 12.4037 122.216 12.302 122.528 12.2045C122.84 12.1109 123.189 12.0621 123.577 12.0621C124.106 12.0621 124.634 12.1272 125.158 12.2532C125.687 12.3793 126.159 12.6029 126.58 12.9282C127 13.2494 127.34 13.6926 127.604 14.2538C127.869 14.8149 128.001 15.5265 128.001 16.3925V23.4147H124.974V16.4779C124.974 15.8599 124.914 15.3435 124.798 14.9328C124.682 14.5221 124.526 14.1846 124.334 13.9244C124.142 13.6642 123.917 13.4771 123.669 13.3633C123.421 13.2535 123.157 13.1966 122.877 13.1966C122.612 13.1966 122.368 13.2413 122.144 13.3267C121.92 13.4121 121.72 13.5137 121.551 13.6235C121.363 13.7536 121.187 13.8878 121.015 14.0301V23.4106H117.989L117.977 7.80493H117.981Z" fill="#0C0C0C"/>
<path d="M30.644 7.80493C30.989 7.80493 31.3908 7.82126 31.8494 7.8539C32.3039 7.88655 32.7706 7.96001 33.2414 8.07835C33.7121 8.1967 34.1748 8.35993 34.6212 8.56398C35.0676 8.76802 35.4735 9.04961 35.8347 9.40464C36.1959 9.75968 36.484 10.1963 36.695 10.7105C36.9061 11.2247 37.0116 11.845 37.0116 12.5714C37.0116 13.2529 36.9061 13.8365 36.695 14.3262C36.484 14.8159 36.204 15.2322 35.859 15.5709C35.5141 15.9096 35.1285 16.183 34.7024 16.3911C34.2763 16.5952 33.8583 16.7543 33.4402 16.8645C33.0222 16.9747 32.6286 17.0482 32.2593 17.0767C31.89 17.1094 31.5856 17.1257 31.3502 17.1257H29.0816V17.1584L29.0816 20.5251C29.0816 22.0228 28.0508 23.4389 26.6385 23.4144H25.4453L25.4453 7.80901H25.632L30.64 7.80493H30.644ZM29.11 8.91902V16.1789H30.5264C30.92 16.1789 31.3096 16.1218 31.6952 16.0116C32.0807 15.9014 32.4216 15.7015 32.7219 15.4199C33.0222 15.1342 33.2617 14.7506 33.4402 14.2691C33.6229 13.7875 33.7121 13.1836 33.7121 12.4531C33.7121 11.7226 33.6229 11.1227 33.4402 10.6493C33.2576 10.1759 33.0222 9.79641 32.7341 9.51075C32.4419 9.22509 32.1172 9.0292 31.756 8.91902C31.0255 8.69457 29.8283 8.68641 29.1141 8.91902H29.11Z" fill="#0C0C0C"/>
</svg>
