<svg width="42" height="18" viewBox="0 0 42 18" fill="none" xmlns="http://www.w3.org/2000/svg">
<g id="Vector">
<path d="M7.45134 0.220032C8.71146 0.321328 9.88447 0.724486 10.8913 1.53485C12.4229 2.76661 12.8889 4.40964 12.8018 6.29982C12.7552 7.31278 12.4554 8.24673 11.882 9.03886C11.254 9.90596 10.3808 10.5279 9.35975 10.9189C8.2536 11.3444 7.10085 11.4477 5.9319 11.4558C4.54819 11.4659 3.16246 11.4558 1.77876 11.4598C1.19934 11.4598 1.15072 11.5105 1.1487 12.1021C1.14465 13.5546 1.15275 15.303 1.14059 16.7536C1.14059 16.9359 1.07576 16.9521 0.982571 16.9744C0.717176 17.0412 0.41734 17.0109 0.139789 16.9703C0.076985 16.9602 0.00607776 16.7475 0.00607776 16.628C0 14.6729 0.00607776 12.7159 0 10.7568C0 10.3962 0.212722 10.3537 0.496351 10.3537C1.77876 10.3577 3.06319 10.3618 4.3456 10.3537C5.25726 10.3476 6.16893 10.3496 7.07654 10.2929C8.52507 10.2038 9.79938 9.71755 10.7617 8.56682C11.1993 8.04211 11.4181 7.41813 11.5113 6.77186C11.7645 5.02349 11.4708 3.42706 9.97563 2.27432C9.15311 1.6402 8.17662 1.34442 7.15353 1.27554C6.07776 1.20463 4.99795 1.19855 3.91813 1.18437C2.78767 1.17019 1.65518 1.18437 0.524713 1.17829C0.0465962 1.17829 0.00202592 1.12562 0 0.659657C0 0.189643 0.0465962 0.130891 0.51661 0.12684C1.59643 0.120762 2.67827 0.124814 3.75808 0.124814C3.75808 0.112658 6.22363 0.120762 7.45134 0.220032Z" fill="white"/>
<path d="M20.9225 7.74796C22.5797 9.50444 24.1782 11.1981 25.8394 12.9607C26.0096 12.6669 26.1555 12.4825 26.2304 12.2718C26.4877 11.5425 26.7207 10.8051 26.9638 10.0717C27.1056 9.64625 27.1603 9.62194 27.6283 9.74755C27.9423 9.83263 28.074 10.0008 27.9869 10.3432C27.7093 11.421 27.3933 12.4846 26.8382 13.459C26.6822 13.7305 26.7551 13.929 26.9496 14.1357C27.5898 14.8063 28.23 15.4768 28.858 16.1576C29.1498 16.4716 29.1032 16.5648 28.7061 16.9821C28.4245 17.2799 28.2705 17.0733 28.0922 16.8889C27.5047 16.2832 26.9233 15.6734 26.3317 15.0717C25.9751 14.709 25.9286 14.6908 25.6105 15.0555C25.0655 15.6815 24.3747 16.111 23.6453 16.4412C22.916 16.7714 22.2049 16.9578 21.4452 17.055C20.0129 17.2374 18.5826 17.1259 17.2617 16.4939C15.4039 15.6065 14.2268 13.6596 15.1709 11.3703C15.6166 10.2905 16.4108 9.54698 17.3002 8.87437C17.8877 8.4307 18.5056 8.02754 19.1539 7.57779C18.7527 7.08954 18.3597 6.61547 17.9728 6.13533C17.0733 5.01702 16.666 3.08024 17.4521 1.76947C17.9241 0.981388 18.5907 0.452622 19.4821 0.219642C20.4424 -0.0315726 21.4026 -0.0903243 22.3629 0.164942C23.856 0.562022 24.8771 1.96599 24.7252 3.50366C24.6097 4.68274 24.0039 5.49311 23.1814 6.15559C22.6202 6.60737 22.0003 6.98824 21.4067 7.40153C21.273 7.49472 21.1413 7.59399 20.9205 7.75201L20.9225 7.74796ZM25.179 13.9554C25.1263 13.8662 25.0959 13.7852 25.0412 13.7265C23.4326 12.0044 21.818 10.2844 20.2114 8.55833C19.9865 8.31725 19.7657 8.35979 19.5347 8.50768C19.1093 8.77916 18.6758 9.04455 18.2706 9.34641C17.1887 10.1487 16.0988 10.9732 16.0562 12.6993C16.0421 13.3152 16.1839 13.9331 16.5222 14.4477C17.0368 15.2297 17.8472 15.6896 18.7629 15.9144C20.0412 16.2285 21.2932 16.1353 22.5493 15.7544C23.621 15.4303 24.4618 14.8083 25.1769 13.9554H25.179ZM21.7815 1.02596C21.1291 0.898325 20.4505 0.934792 19.8184 1.14144C19.6604 1.19208 19.5044 1.25691 19.3585 1.34403C18.2604 1.98422 17.9687 2.86955 18.2908 4.27148C18.5319 5.31888 19.3139 6.02796 20.0048 6.7816C20.0797 6.86264 20.3249 6.87074 20.4403 6.81199C20.8009 6.63371 21.1555 6.43111 21.4817 6.19813C22.213 5.67747 22.9646 5.17504 23.4103 4.34847C23.856 3.52189 23.6879 2.32255 23.0558 1.67425C22.7053 1.31566 22.2981 1.12725 21.7815 1.02596Z" fill="white"/>
<path d="M41.2996 8.4469C41.9681 8.4469 42.0451 8.54617 41.9823 9.21675C41.958 9.46999 41.8486 9.57736 41.5994 9.57331C41.1942 9.56724 35.4609 9.57331 32.9994 9.57331C32.3835 9.57331 32.3713 9.58547 32.3713 10.1932C32.3693 12.284 32.3754 14.3747 32.3612 16.4655C32.3612 16.6559 32.27 16.9922 32.1728 17.0105C31.8709 17.0672 31.5366 17.0449 31.2409 16.9639C31.1558 16.9396 31.1254 16.6053 31.1254 16.4128C31.1173 14.1701 31.1213 11.9274 31.1213 9.68474C31.1213 9.48215 31.1213 9.27956 31.1213 9.07696C31.1254 8.46108 31.1375 8.4469 31.7372 8.44488C33.3397 8.44285 39.7133 8.44488 41.2975 8.44488L41.2996 8.4469Z" fill="white"/>
<path d="M31.7433 1.25692C31.1801 1.25692 30.9127 0.819321 31.17 0.316892C31.2166 0.227752 31.3361 0.158871 31.4374 0.118352C31.5265 0.0818857 31.6359 0.0940411 31.7372 0.0940411C34.9564 0.0940411 38.1736 0.0920152 41.3927 0.0940411C41.9195 0.0940411 41.9803 0.164948 41.9803 0.671429C41.9803 1.18399 41.9195 1.25489 41.3988 1.25692C39.7821 1.26097 33.3438 1.26097 31.7433 1.25692Z" fill="white"/>
</g>
</svg>
