<svg viewBox="0 0 670 205" fill="none" xmlns="http://www.w3.org/2000/svg">
<path d="M301.909 103.309C301.909 99.0384 302.756 95.4325 304.452 92.4659C306.148 89.4993 308.506 87.0953 311.527 85.254C314.547 83.4126 318.098 82.1595 322.072 81.3156C324.43 80.8041 327.027 80.5739 329.783 80.5483C342.554 80.5739 358.504 80.0113 365.605 92.4659C367.089 95.0489 367.91 98.1178 368.016 101.545C368.096 102.133 368.122 102.721 368.122 103.335C368.122 107.606 367.328 111.186 365.738 114.127C364.148 117.043 361.922 119.395 359.034 121.186C356.146 122.976 352.702 124.255 348.648 125.047C344.594 125.84 340.037 126.249 335.002 126.249C330.392 126.249 326.656 126.505 323.821 126.991C320.986 127.477 319.581 128.73 319.581 130.699C319.581 132.387 320.986 133.461 323.821 133.896C326.656 134.356 330.365 134.612 335.002 134.714C340.248 134.817 345.15 135.354 349.708 136.351C354.265 137.348 358.266 138.806 361.657 140.724C365.049 142.668 367.751 145.097 369.739 148.013C371.752 150.928 372.733 154.33 372.733 158.191C372.733 162.565 371.779 166.196 369.871 169.112C367.963 172.027 365.314 174.38 361.949 176.17C358.557 177.96 354.556 179.239 349.92 180.032C345.309 180.824 340.328 181.234 334.976 181.234C329.624 181.234 324.536 180.824 319.952 180.032C315.395 179.239 311.394 177.96 308.003 176.17C304.611 174.38 301.962 172.027 300.08 169.112C298.173 166.196 297.219 162.539 297.219 158.191C297.219 155.506 297.828 153.102 299.074 150.979C300.292 148.857 301.935 146.99 303.922 145.404C305.936 143.819 308.162 142.489 310.626 141.389C313.09 140.289 315.554 139.446 318.018 138.857C316.058 138.269 314.415 137.323 313.09 136.044C311.765 134.765 311.076 132.975 311.076 130.699C311.076 127.323 313.116 124.843 317.25 123.257C312.931 121.774 309.301 119.216 306.307 115.585C303.339 111.979 301.829 107.887 301.829 103.309H301.909ZM329.014 140.775C325.623 142.156 322.947 144.228 321.012 146.939C319.052 149.675 318.071 153.409 318.071 158.166C318.071 163.818 319.608 167.961 322.682 170.595C325.755 173.229 329.862 174.533 335.002 174.533C340.143 174.533 344.249 173.229 347.323 170.595C350.396 167.961 351.933 163.818 351.933 158.166C351.933 153.716 350.502 150.033 347.614 147.169C344.726 144.305 340.937 142.412 336.221 141.517L328.988 140.775H329.014ZM347.349 103.309C347.349 97.6574 346.184 93.361 343.878 90.4455C341.573 87.5301 338.606 86.0468 335.029 86.0468C331.452 86.0468 328.484 87.4022 326.179 90.1386C323.874 92.8751 322.708 97.2482 322.708 103.309C322.708 109.37 323.874 113.82 326.179 116.403C328.484 118.986 331.452 120.265 335.029 120.265C338.606 120.265 341.573 118.986 343.878 116.403C346.184 113.82 347.349 109.473 347.349 103.309Z"/>
<path d="M553.147 82.2526C549.19 82.2526 546.013 82.9498 543.59 84.3443C541.786 85.403 540.306 86.4102 539.094 87.3914C539.094 87.6238 539.094 87.8563 539.094 88.0629L539.04 127.831V137.773C540.198 138.677 541.436 139.426 542.809 140.019C543.967 140.613 545.34 141.156 546.955 141.595C548.57 142.034 550.374 142.266 552.366 142.266C555.301 142.266 557.751 141.517 559.716 140.019C561.708 138.522 563.323 136.404 564.562 133.719C565.827 131.007 566.688 127.831 567.227 124.19C567.738 120.523 568.008 116.546 568.008 112.259C568.008 107.973 567.738 103.97 567.227 100.329C566.715 96.662 565.854 93.4858 564.642 90.8001C563.431 88.0887 561.896 85.997 560.012 84.4992C558.127 83.0015 555.839 82.2526 553.12 82.2526H553.147ZM539.094 144.59V163.028C539.094 169.071 536.079 174.623 528.783 176.198H518.715V124.112V95.7066V77.0105V76.4423H528.783C532.445 76.3907 535.487 78.4824 537.29 81.5295C537.64 81.2713 537.99 81.0389 538.367 80.7807C539.66 79.8768 541.194 79.0247 542.917 78.2241C544.64 77.4236 546.632 76.778 548.867 76.2616C551.101 75.7709 553.578 75.5127 556.297 75.5127C561.735 75.5127 566.5 76.4682 570.619 78.3533C574.738 80.2642 578.184 82.8465 580.957 86.1519C583.73 89.4573 585.776 93.3566 587.149 97.8757C588.495 102.369 589.195 107.198 589.195 112.285C589.195 117.372 588.521 122.201 587.149 126.695C585.802 131.188 583.703 135.113 580.876 138.418C578.049 141.724 574.549 144.332 570.323 146.217C566.096 148.128 561.17 149.058 555.516 149.058C552.905 149.058 550.616 148.825 548.624 148.386C546.632 147.947 544.909 147.405 543.455 146.811C541.786 146.217 540.333 145.468 539.094 144.59Z" />
<path d="M471.296 75.5127C481.602 75.5127 489.549 78.1897 495.19 83.5173C500.804 88.8714 503.625 96.9821 503.625 107.876V149.489L503.028 148.562V149.542H496.465C491.556 149.622 487.813 146.441 485.725 141.988C483.365 143.95 481.087 145.779 479.514 146.865C478.049 148.005 476.096 148.959 473.682 149.781C471.269 150.603 468.366 151.027 465.003 151.027C456.27 151.027 449.625 149.092 445.042 145.248C440.458 141.405 438.18 136.396 438.18 130.22C438.18 126.509 438.803 123.249 440.078 120.439C441.353 117.603 443.577 115.191 446.777 113.203C449.978 111.189 454.317 109.678 459.796 108.671C465.275 107.637 472.245 107.134 480.761 107.134H483.121C483.121 97.8833 481.819 91.469 479.188 87.8642C476.557 84.2595 472.869 82.4571 468.15 82.4571C466.359 82.4571 464.651 82.6427 463.023 82.9872C461.396 83.3583 459.904 84.0474 458.521 85.0547C457.165 86.0884 455.945 87.4931 454.887 89.2955C453.829 91.0979 452.988 93.4304 452.364 96.3195H443.685C443.685 93.6424 443.875 90.9123 444.228 88.1558C444.608 85.3727 445.72 82.9607 447.618 80.9198C449.517 78.8524 452.636 77.4476 457.002 76.6789C461.369 75.9103 466.115 75.5127 471.269 75.5127H471.296ZM483.121 114.052H480.761C473.194 114.052 467.743 115.403 464.434 118.107C461.125 120.81 459.47 124.892 459.47 130.405C459.47 134.752 460.393 138.066 462.237 140.292C464.081 142.518 466.576 143.632 469.723 143.632C472.136 143.632 474.171 143.128 475.798 142.068C477.425 141.034 478.808 139.894 479.975 138.649C481.249 137.191 482.28 135.494 483.121 133.507V114.025V114.052Z" />
<path d="M432.82 84.4748C433.033 84.9032 433.14 85.13 433.14 85.13L425.229 90.8507C420.141 83.996 409.7 83.4668 402.481 87.6249V130.492C402.481 138.431 397.5 146.117 389.536 145.991H382.797V75.5284H389.536C393.744 75.478 397.367 77.5445 399.818 80.6694C409.886 74.1927 427.013 72.1766 432.793 84.4496L432.82 84.4748Z" />
<path d="M254.807 75.5127C265.114 75.5127 273.061 78.1897 278.702 83.5173C284.316 88.8714 287.137 96.9821 287.137 107.876V149.489L286.54 148.562V149.542H279.977C275.068 149.622 271.325 146.441 269.236 141.988C266.877 143.95 264.598 145.779 263.025 146.865C261.561 148.005 259.608 148.959 257.194 149.781C254.78 150.603 251.878 151.027 248.515 151.027C239.782 151.027 233.137 149.092 228.553 145.248C223.97 141.405 221.691 136.396 221.691 130.22C221.691 126.509 222.315 123.249 223.59 120.439C224.865 117.603 227.089 115.191 230.289 113.203C233.489 111.189 237.829 109.678 243.308 108.671C248.786 107.637 255.757 107.134 264.273 107.134H266.633C266.633 97.8833 265.331 91.469 262.7 87.8642C260.069 84.2595 256.38 82.4571 251.661 82.4571C249.871 82.4571 248.163 82.6427 246.535 82.9872C244.908 83.3583 243.416 84.0474 242.033 85.0547C240.677 86.0884 239.456 87.4931 238.399 89.2955C237.341 91.0979 236.5 93.4304 235.876 96.3195H227.197C227.197 93.6424 227.387 90.9123 227.74 88.1558C228.119 85.3727 229.231 82.9607 231.13 80.9198C233.028 78.8524 236.147 77.4476 240.514 76.6789C244.881 75.9103 249.627 75.5127 254.78 75.5127H254.807ZM266.633 114.052H264.273C256.706 114.052 251.254 115.403 247.945 118.107C244.637 120.81 242.982 124.892 242.982 130.405C242.982 134.752 243.904 138.066 245.749 140.292C247.593 142.518 250.088 143.632 253.234 143.632C255.648 143.632 257.682 143.128 259.31 142.068C260.937 141.034 262.32 139.894 263.486 138.649C264.761 137.191 265.792 135.494 266.633 133.507V114.025V114.052Z" />
<path d="M216.351 84.4748C216.564 84.9032 216.671 85.13 216.671 85.13L208.76 90.8507C203.699 83.996 193.231 83.4668 186.012 87.6249V130.492C186.012 138.431 181.031 146.117 173.067 145.991H166.328V75.5284H173.067C177.276 75.478 180.898 77.5445 183.349 80.6694C193.444 74.1927 210.544 72.1766 216.325 84.4496L216.351 84.4748Z" />
<path d="M113.862 75.5127C124.168 75.5127 132.115 78.1897 137.757 83.5173C143.371 88.8714 146.192 96.9821 146.192 107.876V149.489L145.595 148.562V149.542H139.031C134.122 149.622 130.379 146.441 128.291 141.988C125.931 143.95 123.653 145.779 122.08 146.865C120.615 148.005 118.663 148.959 116.249 149.781C113.835 150.603 110.933 151.027 107.57 151.027C98.8365 151.027 92.1916 149.092 87.608 145.248C83.0243 141.405 80.7461 136.396 80.7461 130.22C80.7461 126.509 81.3699 123.249 82.6446 120.439C83.9194 117.603 86.1434 115.191 89.3438 113.203C92.5442 111.189 96.8837 109.678 102.362 108.671C107.841 107.637 114.811 107.134 123.328 107.134H125.687C125.687 97.8833 124.385 91.469 121.755 87.8642C119.124 84.2595 115.435 82.4571 110.716 82.4571C108.926 82.4571 107.217 82.6427 105.59 82.9872C103.963 83.3583 102.471 84.0474 101.088 85.0547C99.7315 86.0884 98.511 87.4931 97.4533 89.2955C96.3955 91.0979 95.5547 93.4304 94.9309 96.3195H86.2519C86.2519 93.6424 86.4417 90.9123 86.7943 88.1558C87.174 85.3727 88.286 82.9607 90.1846 80.9198C92.0831 78.8524 95.2021 77.4476 99.5688 76.6789C103.935 75.9103 108.682 75.5127 113.835 75.5127H113.862ZM125.687 114.052H123.328C115.761 114.052 110.309 115.403 107 118.107C103.691 120.81 102.037 124.892 102.037 130.405C102.037 134.752 102.959 138.066 104.803 140.292C106.648 142.518 109.143 143.632 112.289 143.632C114.703 143.632 116.737 143.128 118.364 142.068C119.992 141.034 121.375 139.894 122.541 138.649C123.816 137.191 124.847 135.494 125.687 133.507V114.025V114.052Z" />
<path d="M604.339 50.3433H610.481C613.12 50.3433 615.316 50.6842 617.093 51.3399C618.87 51.9956 620.282 53.0971 621.353 54.6183C622.425 56.1394 623.157 58.1851 623.549 60.7291C623.941 63.2732 624.15 66.4204 624.15 70.1708V83.599C625.561 82.5762 627.13 81.6058 628.855 80.7141C630.266 80.006 631.991 79.3503 634.03 78.7208C636.068 78.1176 638.342 77.8029 640.877 77.8029C644.327 77.8029 647.777 78.2225 651.201 79.0356C654.651 79.8486 657.735 81.2911 660.48 83.3892C663.224 85.4612 665.445 88.3199 667.17 91.9392C668.895 95.5585 669.758 100.148 669.758 105.735V151.029H649.999V106.285C649.999 102.299 649.607 98.968 648.849 96.3191C648.091 93.6702 647.072 91.4934 645.817 89.8148C644.562 88.1363 643.099 86.9299 641.478 86.1955C639.858 85.4874 638.133 85.1202 636.303 85.1202C634.578 85.1202 632.984 85.4087 631.52 85.9595C630.057 86.5102 628.75 87.1659 627.652 87.874C626.424 88.7133 625.274 89.5788 624.15 90.4967V151.002H604.391L604.312 50.3433H604.339Z" />
<path d="M34.1369 50.3433C36.389 50.3433 39.0122 50.4486 42.0062 50.6591C44.9738 50.8697 48.0208 51.3435 51.0944 52.1069C54.1679 52.8702 57.1885 53.9231 60.1031 55.2392C63.0176 56.5554 65.6673 58.3716 68.0254 60.6617C70.3836 62.9517 72.2648 65.7682 73.6426 69.0848C75.0204 72.4015 75.7093 76.4025 75.7093 81.0879C75.7093 85.4837 75.0204 89.2478 73.6426 92.4065C72.2648 95.5652 70.4366 98.2501 68.1844 100.435C65.9322 102.62 63.4151 104.383 60.633 105.726C57.8509 107.042 55.1218 108.068 52.3927 108.779C49.6636 109.49 47.0935 109.964 44.6823 110.148C42.2712 110.358 40.284 110.464 38.7472 110.464H23.9358V110.674V132.39C23.9358 142.051 17.2058 151.184 7.98517 151.027H0.195312V50.3696H1.41413L34.1104 50.3433H34.1369ZM24.1213 57.5293V104.357H33.3685C35.9386 104.357 38.4822 103.988 40.9994 103.278C43.5165 102.567 45.7422 101.277 47.7029 99.4609C49.6636 97.6183 51.2269 95.144 52.3927 92.038C53.585 88.9319 54.1679 85.0362 54.1679 80.3245C54.1679 75.6128 53.585 71.7434 52.3927 68.69C51.2004 65.6366 49.6636 63.1886 47.7824 61.346C45.8746 59.5035 43.755 58.24 41.3968 57.5293C36.6275 56.0816 28.8111 56.0289 24.1478 57.5293H24.1213Z" />
</svg>
