<svg viewBox="0 0 94 23" fill="none" xmlns="http://www.w3.org/2000/svg">
<path fill-rule="evenodd" clip-rule="evenodd" d="M87.1497 13.284L85.6462 14.1381C86.1961 15.716 87.6876 16.665 89.7413 16.6769C90.8659 16.6769 91.7703 16.4159 92.455 15.8702C93.1517 15.3245 93.4939 14.5771 93.4939 13.6518C93.5671 12.6671 92.9684 11.9672 92.4062 11.5401C92.2473 11.4096 91.9784 11.2554 91.6358 11.1249C91.5714 11.0994 91.5097 11.0748 91.4508 11.0514C91.2078 10.9545 91.0109 10.8761 90.8535 10.8283C90.6703 10.7572 90.3772 10.6624 89.9742 10.532C88.3482 10.0456 87.8341 9.68947 87.8341 8.93019C87.8341 8.14723 88.482 7.64897 89.4968 7.64897C90.5357 7.64897 91.2813 8.13537 91.7215 9.08443L93.1885 8.26586C92.5038 6.85415 91.196 6 89.4968 6C88.5556 6 87.7488 6.26097 87.0885 6.80671C86.4162 7.34056 86.086 8.05232 86.086 8.9658C86.086 9.89111 86.4286 10.5673 87.1129 11.0418C87.822 11.4926 88.3231 11.6825 89.338 11.979C90.2424 12.24 90.8779 12.4892 91.2204 12.7146C91.5626 12.9281 91.7459 13.2366 91.7459 13.6636C91.7459 14.4703 91.098 15.016 89.7778 15.016C88.4455 15.016 87.5775 14.4466 87.1497 13.284ZM3.33859 16.4818L0.5 6.18445H2.36203L4.54302 14.0934L6.88046 6.18376L8.61619 6.18445L10.9618 14.1354L13.1526 6.18639L15.0146 6.18376L12.1748 16.48L10.0165 16.4778L7.74904 8.78789L5.47945 16.4798L3.33859 16.4818ZM16.2987 6.18977H18.0712V16.4751H16.2987V6.18977ZM26.1758 14.8618H21.8607V6.18977H20.1249V16.4751H26.1758V14.8618ZM31.6279 6.20163C33.0825 6.20163 34.2927 6.6999 35.2462 7.68453C36.2119 8.66917 36.7009 9.8911 36.7009 11.3384C36.7009 12.7739 36.2119 13.9957 35.2462 14.9922C34.2927 15.9769 33.0825 16.4751 31.6279 16.4751H27.4595V6.18977H31.6279V6.20163ZM31.6279 14.8736C32.6302 14.8736 33.4492 14.5414 34.0605 13.8771C34.6961 13.2128 35.0139 12.3586 35.0139 11.3502C35.0139 10.3182 34.6961 9.48774 34.0605 8.82341C33.437 8.15904 32.618 7.82688 31.6279 7.82688H29.2075V14.8736H31.6279ZM45.1233 15.6378C45.7468 15.0799 46.0522 14.3796 46.0522 13.5369C46.0522 12.4686 45.4899 11.6141 44.5611 11.1393C45.2698 10.6289 45.6368 9.94048 45.6368 9.0384C45.6368 8.2313 45.3434 7.55473 44.732 7.00876C44.1329 6.47465 43.3997 6.18977 42.5317 6.18977H38.3267V16.4805H42.8619C43.7663 16.4805 44.4999 16.1956 45.1233 15.6378ZM40.0746 10.4865V7.78028H42.5437C43.3141 7.78028 43.9008 8.37372 43.9008 9.13338C43.9008 9.893 43.3141 10.4865 42.5437 10.4865H40.0746ZM44.3166 13.4538C44.3166 14.2609 43.6807 14.89 42.8739 14.89V14.9019H40.0746V12.0176H42.8739C43.6807 12.0176 44.3166 12.6467 44.3166 13.4538ZM49.4381 14.8663H54.1323V16.4805H47.7025V6.18977H54.0591V7.804H49.4381V10.4746H53.6801V12.077H49.4381V14.8663ZM59.4864 12.7298L61.7359 16.4805H63.6548L61.2468 12.4805C62.5058 12.0057 63.3494 10.8069 63.3494 9.50132C63.3494 8.57552 63.0069 7.79214 62.347 7.16304C61.6991 6.51023 60.8923 6.18977 59.9386 6.18977H55.6971V16.4805H57.4327V12.7298H59.4864ZM57.4327 11.2224V7.78024H59.9266C60.8434 7.78024 61.589 8.55176 61.589 9.50132C61.589 10.4627 60.8555 11.2224 59.9266 11.2224H57.4327ZM71.0138 16.4805L68.7768 12.7278H66.723V16.4805H64.9874V6.18442H69.229C70.1826 6.18442 70.9894 6.50507 71.6373 7.15823C72.2972 7.78763 72.6398 8.57139 72.6398 9.49768C72.6398 10.804 71.7962 12.0034 70.5372 12.4784L72.9451 16.4805H71.0138ZM66.723 7.77573V11.2196H69.217C70.1458 11.2196 70.8794 10.4596 70.8794 9.49768C70.8794 8.54767 70.1338 7.77573 69.217 7.77573H66.723ZM75.9525 6.18561H74.2165V16.4805H75.9525V6.18561ZM79.7419 14.8663H84.436V16.4804H78.0059V6.18977H84.3624V7.804H79.7419V10.4746H83.9834V12.077H79.7419V14.8663Z" />
</svg>
