<svg width="96" height="96" viewBox="0 0 96 96" fill="none" xmlns="http://www.w3.org/2000/svg">
<g id="Group 10">
<circle id="Ellipse 1" cx="47.9414" cy="48" r="47.2031" fill="white"/>
<g id="Group 9">
<path id="Vector" fill-rule="evenodd" clip-rule="evenodd" d="M44.3879 23.0498C43.2917 22.0887 42.1471 21.472 40.8091 22.5372L38.6812 24.6676C39.713 25.036 39.85 25.3404 40.5915 26.0372L53.4879 38.7077L55.3417 36.8576C56.4138 35.496 55.7125 34.2626 54.6727 33.1974L44.3798 23.0578L44.3879 23.0498ZM55.9866 22.4811L53.641 20.1264H53.6169L52.303 18.8369C49.6593 16.242 45.3632 15.6012 42.9048 18.1401L42.4696 18.5726L42.123 18.925L41.9134 19.1333L39.9386 21.1035L32.9182 28.1356L30.2422 30.8187L31.427 31.9319C32.765 30.8667 33.9096 31.4834 35.0058 32.4365C42.1391 39.4686 49.224 46.5647 56.3251 53.6288C57.1472 54.6539 57.4535 55.6631 56.5427 56.8084L57.6711 57.9777L60.9758 54.67C63.5148 52.2111 62.8297 47.9423 60.2021 45.3393L54.6405 39.861L58.7432 35.7523L58.9527 35.5361L59.7346 34.7512C62.2735 32.2923 61.5884 28.0235 58.9608 25.4205L57.647 24.123V24.099L55.9866 22.4811Z" fill="#0C0C0C"/>
<path id="Vector_2" fill-rule="evenodd" clip-rule="evenodd" d="M51.507 72.9501C52.6032 73.9112 53.7478 74.5279 55.0858 73.4627L57.2137 71.3323C56.182 70.9639 56.045 70.6595 55.3034 69.9627L42.407 57.2922L40.5532 59.1423C39.4812 60.5039 40.1824 61.7373 41.2222 62.8025L51.5151 72.9421L51.507 72.9501ZM39.9084 73.5188L42.2539 75.8735H42.2781L43.5919 77.163C46.2357 79.7579 50.5318 80.3987 52.9901 77.8597L53.4254 77.4273L53.772 77.0749L53.9815 76.8666L55.9563 74.8964L62.9687 67.8643L65.6447 65.1812L64.4598 64.068C63.1218 65.1332 61.9773 64.5165 60.8811 63.5634C53.7478 56.5313 46.6628 49.4352 39.5618 42.3711C38.7396 41.346 38.4334 40.3368 39.3442 39.1915L38.2157 38.0222L34.911 41.3299C32.3721 43.7888 33.0572 48.0576 35.6848 50.6606L41.2464 56.1389L37.1437 60.2476L36.9342 60.4638L36.1523 61.2487C33.6133 63.7076 34.2985 67.9764 36.9261 70.5794L38.2399 71.8769V71.9009L39.9003 73.5188H39.9084Z" fill="#0C0C0C"/>
</g>
</g>
</svg>
