<svg width="100" height="100" viewBox="0 0 100 100" fill="none" xmlns="http://www.w3.org/2000/svg">
<g id="Group 10">
<circle id="Ellipse 1" cx="49.9414" cy="50" r="49.6875" fill="white"/>
<g id="Group 9">
<path id="Vector" fill-rule="evenodd" clip-rule="evenodd" d="M46.1988 23.7366C45.0449 22.7249 43.8401 22.0758 42.4317 23.197L40.1918 25.4396C41.2778 25.8274 41.4221 26.1478 42.2026 26.8813L55.7778 40.2186L57.7292 38.2711C58.8576 36.8379 58.1195 35.5396 57.025 34.4183L46.1903 23.745L46.1988 23.7366ZM58.4079 23.138L55.939 20.6594H55.9135L54.5305 19.3021C51.7476 16.5705 47.2254 15.8961 44.6377 18.5686L44.1795 19.0238L43.8147 19.3948L43.5941 19.614L41.5154 21.688L34.1254 29.0901L31.3086 31.9144L32.5558 33.0863C33.9642 31.965 35.169 32.6141 36.3229 33.6174C43.8316 41.0196 51.2895 48.4892 58.7643 55.925C59.6297 57.0042 59.9521 58.0664 58.9934 59.272L60.1812 60.5029L63.6598 57.021C66.3324 54.4328 65.6112 49.9392 62.8453 47.1993L56.991 41.4327L61.3096 37.1077L61.5302 36.8801L62.3532 36.0539C65.0258 33.4656 64.3046 28.9721 61.5387 26.2321L60.1557 24.8663V24.841L58.4079 23.138Z" fill="#0C0C0C"/>
<path id="Vector_2" fill-rule="evenodd" clip-rule="evenodd" d="M53.6927 76.2633C54.8465 77.275 56.0513 77.9241 57.4598 76.8029L59.6996 74.5603C58.6136 74.1725 58.4694 73.8521 57.6888 73.1186L44.1137 59.7813L42.1623 61.7288C41.0339 63.162 41.772 64.4603 42.8665 65.5816L53.7011 76.2549L53.6927 76.2633ZM41.4835 76.8619L43.9525 79.3405H43.978L45.3609 80.6979C48.1438 83.4294 52.666 84.1039 55.2538 81.4313L55.712 80.9761L56.0768 80.6051L56.2974 80.3859L58.3761 78.312L65.7575 70.9098L68.5744 68.0855L67.3272 66.9137C65.9187 68.0349 64.714 67.3858 63.5601 66.3825C56.0513 58.9804 48.5935 51.5108 41.1187 44.0749C40.2533 42.9958 39.9309 41.9335 40.8896 40.7279L39.7018 39.497L36.2232 42.9789C33.5506 45.5671 34.2717 50.0607 37.0377 52.8007L42.8919 58.5673L38.5734 62.8922L38.3528 63.1198L37.5298 63.946C34.8572 66.5343 35.5784 71.0278 38.3443 73.7678L39.7272 75.1336V75.1589L41.475 76.8619H41.4835Z" fill="#0C0C0C"/>
</g>
</g>
</svg>
