<svg width="120" height="120" viewBox="0 0 120 120" fill="none" xmlns="http://www.w3.org/2000/svg">
<g id="Group 10">
<circle id="Ellipse 1" cx="59.9297" cy="60" r="59.625" fill="white"/>
<g id="Group 9">
<path id="Vector" fill-rule="evenodd" clip-rule="evenodd" d="M55.4386 28.4839C54.0539 27.2699 52.6082 26.4909 50.9181 27.8364L48.2302 30.5275C49.5334 30.9929 49.7065 31.3773 50.6432 32.2575L66.9333 48.2623L69.275 45.9254C70.6291 44.2055 69.7434 42.6475 68.43 41.302L55.4284 28.494L55.4386 28.4839ZM70.0895 27.7656L67.1268 24.7913H67.0962L65.4366 23.1625C62.0972 19.8846 56.6705 19.0753 53.5652 22.2823L53.0154 22.8286L52.5776 23.2737L52.3129 23.5368L49.8185 26.0255L40.9505 34.9081L37.5703 38.2973L39.067 39.7035C40.7571 38.358 42.2028 39.137 43.5875 40.3409C52.598 49.2234 61.5474 58.187 70.5171 67.11C71.5556 68.405 71.9425 69.6797 70.792 71.1264L72.2174 72.6035L76.3918 68.4252C79.5989 65.3193 78.7335 59.9271 75.4144 56.6391L68.3892 49.7192L73.5715 44.5292L73.8363 44.2561L74.8238 43.2646C78.031 40.1588 77.1656 34.7665 73.8464 31.4785L72.1869 29.8396V29.8092L70.0895 27.7656Z" fill="#0C0C0C"/>
<path id="Vector_2" fill-rule="evenodd" clip-rule="evenodd" d="M64.4312 91.516C65.8158 92.73 67.2616 93.509 68.9517 92.1634L71.6396 89.4724C70.3364 89.007 70.1633 88.6226 69.2266 87.7424L52.9365 71.7375L50.5947 74.0745C49.2406 75.7944 50.1264 77.3524 51.4398 78.6979L64.4414 91.5059L64.4312 91.516ZM49.7802 92.2343L52.743 95.2086H52.7735L54.4331 96.8374C57.7726 100.115 63.1992 100.925 66.3046 97.7176L66.8543 97.1713L67.2921 96.7261L67.5569 96.4631L70.0513 93.9744L78.9091 85.0918L82.2893 81.7026L80.7926 80.2964C79.1025 81.6419 77.6567 80.8629 76.2721 79.659C67.2616 70.7764 58.3122 61.8129 49.3424 52.8899C48.3039 51.5949 47.917 50.3202 49.0675 48.8735L47.6422 47.3964L43.4678 51.5747C40.2607 54.6806 41.1261 60.0728 44.4452 63.3608L51.4703 70.2807L46.288 75.4707L46.0233 75.7438L45.0357 76.7353C41.8286 79.8411 42.694 85.2334 46.0131 88.5214L47.6727 90.1603V90.1907L49.7701 92.2343H49.7802Z" fill="#0C0C0C"/>
</g>
</g>
</svg>
