<svg width="127" height="126" viewBox="0 0 127 126" fill="none" xmlns="http://www.w3.org/2000/svg">
<g id="Group 10">
<circle id="Ellipse 1" cx="63.9258" cy="63" r="62.9375" fill="white"/>
<g id="Group 9">
<path id="Vector" fill-rule="evenodd" clip-rule="evenodd" d="M59.1852 29.733C57.7236 28.4515 56.1975 27.6293 54.4135 29.0496L51.5763 31.8901C52.9519 32.3814 53.1346 32.7872 54.1233 33.7162L71.3185 50.6102L73.7903 48.1434C75.2196 46.328 74.2847 44.6834 72.8983 43.2632L59.1744 29.7437L59.1852 29.733ZM74.6501 28.9748L71.5227 25.8352H71.4904L69.7387 24.1159C66.2137 20.6559 60.4855 19.8016 57.2077 23.1868L56.6274 23.7635L56.1653 24.2334L55.8858 24.511L53.2528 27.138L43.8922 36.5141L40.3242 40.0915L41.904 41.5759C43.688 40.1556 45.2141 40.9779 46.6757 42.2487C56.1868 51.6247 65.6333 61.0862 75.1014 70.505C76.1976 71.8719 76.606 73.2174 75.3916 74.7445L76.8962 76.3036L81.3024 71.8933C84.6877 68.6148 83.7742 62.923 80.2707 59.4524L72.8553 52.148L78.3255 46.6697L78.6049 46.3814L79.6474 45.3349C83.0327 42.0564 82.1192 36.3646 78.6157 32.894L76.8639 31.164V31.1319L74.6501 28.9748Z" fill="#0C0C0C"/>
<path id="Vector_2" fill-rule="evenodd" clip-rule="evenodd" d="M68.678 96.2669C70.1396 97.5483 71.6657 98.3706 73.4497 96.9503L76.2869 94.1097C74.9113 93.6185 74.7286 93.2127 73.7398 92.2836L56.5447 75.3896L54.0729 77.8565C52.6435 79.6719 53.5785 81.3164 54.9649 82.7367L68.6888 96.2562L68.678 96.2669ZM53.2131 97.0251L56.3405 100.165H56.3727L58.1245 101.884C61.6495 105.344 67.3776 106.198 70.6555 102.813L71.2358 102.236L71.6979 101.766L71.9773 101.489L74.6103 98.8618L83.9602 89.4858L87.5282 85.9083L85.9484 84.424C84.1644 85.8443 82.6383 85.022 81.1767 83.7512C71.6657 74.3751 62.2191 64.9136 52.751 55.4949C51.6548 54.128 51.2464 52.7824 52.4608 51.2553L50.9563 49.6962L46.55 54.1066C43.1647 57.385 44.0782 63.0769 47.5817 66.5475L54.9971 73.8519L49.5269 79.3301L49.2475 79.6185L48.205 80.665C44.8197 83.9434 45.7332 89.6353 49.2367 93.1059L50.9885 94.8359V94.8679L53.2024 97.0251H53.2131Z" fill="#0C0C0C"/>
</g>
</g>
</svg>
