<svg width="139" height="139" viewBox="0 0 139 139" fill="none" xmlns="http://www.w3.org/2000/svg">
<g id="Group 10">
<circle id="Ellipse 1" cx="69.4199" cy="69.5" r="69.1484" fill="white"/>
<g id="Group 9">
<path id="Vector" fill-rule="evenodd" clip-rule="evenodd" d="M64.2105 32.95C62.6047 31.5421 60.928 30.6387 58.968 32.1992L55.8508 35.3201C57.3621 35.8598 57.5629 36.3056 58.6491 37.3264L77.5412 55.8875L80.2569 53.1773C81.8273 51.1827 80.8001 49.3759 79.2769 47.8154L64.1987 32.9618L64.2105 32.95ZM81.2015 32.117L77.7655 28.6676H77.7301L75.8055 26.7786C71.9326 22.9772 65.6392 22.0386 62.0379 25.7579L61.4003 26.3915L60.8926 26.9077L60.5856 27.2127L57.6927 30.099L47.4084 40.4003L43.4883 44.3308L45.224 45.9616C47.184 44.4012 48.8607 45.3046 50.4665 46.7008C60.9162 57.0021 71.295 67.3973 81.6974 77.7456C82.9018 79.2474 83.3505 80.7257 82.0163 82.4035L83.6693 84.1165L88.5104 79.2709C92.2298 75.6689 91.2261 69.4154 87.3769 65.6022L79.2297 57.577L85.2397 51.5582L85.5467 51.2414L86.692 50.0916C90.4114 46.4896 89.4078 40.2361 85.5585 36.4229L83.6339 34.5222V34.487L81.2015 32.117Z" fill="#0C0C0C"/>
<path id="Vector_2" fill-rule="evenodd" clip-rule="evenodd" d="M74.6391 106.05C76.2449 107.458 77.9216 108.361 79.8816 106.801L82.9988 103.68C81.4875 103.14 81.2867 102.694 80.2005 101.673L61.3084 83.1122L58.5927 85.8225C57.0223 87.8171 58.0495 89.6239 59.5727 91.1844L74.6509 106.038L74.6391 106.05ZM57.6481 106.883L61.0841 110.332H61.1195L63.0441 112.221C66.917 116.023 73.2104 116.961 76.8117 113.242L77.4493 112.608L77.957 112.092L78.264 111.787L81.1569 108.901L91.4294 98.5994L95.3495 94.669L93.6138 93.0381C91.6538 94.5986 89.9771 93.6952 88.3713 92.299C77.9216 81.9976 67.5428 71.6024 57.1403 61.2542C55.936 59.7524 55.4873 58.2741 56.8215 56.5963L55.1685 54.8833L50.3274 59.7289C46.608 63.3309 47.6117 69.5844 51.4609 73.3975L59.6081 81.4227L53.5981 87.4416L53.2911 87.7584L52.1458 88.9082C48.4264 92.5102 49.43 98.7637 53.2793 102.577L55.2039 104.478V104.513L57.6363 106.883H57.6481Z" fill="#0C0C0C"/>
</g>
</g>
</svg>
