<svg width="150" height="150" viewBox="0 0 150 150" fill="none" xmlns="http://www.w3.org/2000/svg">
<g id="Group 10">
<circle id="Ellipse 1" cx="74.9121" cy="75" r="74.5312" fill="white"/>
<g id="Group 9">
<path id="Vector" fill-rule="evenodd" clip-rule="evenodd" d="M69.2982 35.6049C67.5674 34.0873 65.7602 33.1136 63.6476 34.7955L60.2877 38.1594C61.9167 38.7411 62.1331 39.2216 63.3039 40.3218L83.6666 60.3279L86.5938 57.4067C88.2864 55.2568 87.1792 53.3093 85.5374 51.6274L69.2855 35.6175L69.2982 35.6049ZM87.6119 34.707L83.9084 30.989H83.8703L81.7958 28.953C77.6215 24.8557 70.8381 23.844 66.9565 27.8528L66.2693 28.5357L65.722 29.0921L65.3911 29.4209L62.2731 32.5319L51.1881 43.6351L46.9629 47.8715L48.8337 49.6293C50.9463 47.9474 52.7535 48.9212 54.4844 50.426C65.7475 61.5293 76.9342 72.7337 88.1464 83.8875C89.4445 85.5062 89.9282 87.0996 88.49 88.908L90.2718 90.7543L95.4897 85.5315C99.4986 81.6491 98.4168 74.9088 94.2679 70.7988L85.4865 62.1489L91.9644 55.6615L92.2953 55.3201L93.5298 54.0807C97.5387 50.1984 96.4569 43.4581 92.308 39.3481L90.2336 37.2994V37.2615L87.6119 34.707Z" fill="#0C0C0C"/>
<path id="Vector_2" fill-rule="evenodd" clip-rule="evenodd" d="M80.539 114.395C82.2698 115.913 84.077 116.886 86.1896 115.204L89.5495 111.84C87.9205 111.259 87.7041 110.778 86.5332 109.678L66.1706 89.672L63.2434 92.5932C61.5508 94.743 62.658 96.6905 64.2997 98.3724L80.5517 114.382L80.539 114.395ZM62.2253 115.293L65.9288 119.011H65.9669L68.0414 121.047C72.2157 125.144 78.9991 126.156 82.8807 122.147L83.5679 121.464L84.1152 120.908L84.4461 120.579L87.5641 117.468L98.6363 106.365L102.862 102.128L100.991 100.371C98.8781 102.052 97.0709 101.079 95.3401 99.5738C84.077 88.4706 72.8902 77.2662 61.678 66.1124C60.3799 64.4937 59.8963 62.9003 61.3344 61.0919L59.5527 59.2455L54.3348 64.4684C50.3258 68.3507 51.4076 75.091 55.5565 79.201L64.3379 87.8509L57.86 94.3383L57.5291 94.6798L56.2947 95.9191C52.2858 99.8014 53.3675 106.542 57.5164 110.652L59.5909 112.7V112.738L62.2126 115.293H62.2253Z" fill="#0C0C0C"/>
</g>
</g>
</svg>
