<svg width="49" height="49" viewBox="0 0 49 49" fill="none" xmlns="http://www.w3.org/2000/svg">
<g id="Group 10">
<circle id="Ellipse 1" cx="24.4707" cy="24.5" r="23.6016" fill="white"/>
<g id="Group 9">
<path id="Vector" fill-rule="evenodd" clip-rule="evenodd" d="M22.6939 12.0249C22.1458 11.5443 21.5736 11.236 20.9046 11.7686L19.8406 12.8338C20.3565 13.018 20.425 13.1702 20.7958 13.5186L27.2439 19.8538L28.1709 18.9288C28.7069 18.248 28.3563 17.6313 27.8364 17.0987L22.6899 12.0289L22.6939 12.0249ZM28.4933 11.7406L27.3205 10.5632H27.3084L26.6515 9.91847C25.3296 8.62099 23.1816 8.30062 21.9524 9.57007L21.7348 9.78632L21.5615 9.96252L21.4567 10.0666L20.4693 11.0518L16.9591 14.5678L15.6211 15.9093L16.2135 16.466C16.8825 15.9334 17.4548 16.2417 18.0029 16.7183C21.5695 20.2343 25.112 23.7823 28.6625 27.3144C29.0736 27.827 29.2268 28.3315 28.7714 28.9042L29.3356 29.4889L30.9879 27.835C32.2574 26.6056 31.9148 24.4711 30.601 23.1696L27.8203 20.4305L29.8716 18.3762L29.9764 18.268L30.3673 17.8756C31.6368 16.6462 31.2942 14.5117 29.9804 13.2102L29.3235 12.5615V12.5495L28.4933 11.7406Z" fill="#0C0C0C"/>
<path id="Vector_2" fill-rule="evenodd" clip-rule="evenodd" d="M26.2545 36.9751C26.8026 37.4556 27.3749 37.764 28.0439 37.2314L29.1078 36.1662C28.592 35.982 28.5235 35.8298 28.1527 35.4814L21.7045 29.1461L20.7776 30.0712C20.2416 30.752 20.5922 31.3687 21.1121 31.9013L26.2585 36.9711L26.2545 36.9751ZM20.4552 37.2594L21.6279 38.4368H21.64L22.2969 39.0815C23.6188 40.379 25.7669 40.6994 26.996 39.4299L27.2137 39.2137L27.387 39.0375L27.4917 38.9333L28.4791 37.9482L31.9853 34.4322L33.3233 33.0907L32.7309 32.534C32.0619 33.0666 31.4896 32.7583 30.9415 32.2817C27.3749 28.7657 23.8324 25.2176 20.2819 21.6856C19.8708 21.173 19.7177 20.6684 20.1731 20.0958L19.6088 19.5111L17.9565 21.165C16.687 22.3944 17.0296 24.5289 18.3434 25.8303L21.1242 28.5695L19.0728 30.6238L18.9681 30.732L18.5771 31.1244C17.3076 32.3538 17.6502 34.4883 18.964 35.7897L19.6209 36.4385V36.4505L20.4511 37.2594H20.4552Z" fill="#0C0C0C"/>
</g>
</g>
</svg>
