<svg width="50" height="50" viewBox="0 0 50 50" fill="none" xmlns="http://www.w3.org/2000/svg">
<g id="Group 10">
<circle id="Ellipse 1" cx="24.9707" cy="25" r="24.8438" fill="white"/>
<g id="Group 9">
<path id="Vector" fill-rule="evenodd" clip-rule="evenodd" d="M23.0994 11.8683C22.5225 11.3625 21.9201 11.0379 21.2159 11.5985L20.0959 12.7198C20.6389 12.9137 20.711 13.0739 21.1013 13.4406L27.8889 20.1093L28.8646 19.1356C29.4288 18.419 29.0597 17.7698 28.5125 17.2092L23.0952 11.8725L23.0994 11.8683ZM29.204 11.569L27.9695 10.3297H27.9568L27.2653 9.65103C25.8738 8.28526 23.6127 7.94803 22.3188 9.2843L22.0898 9.51192L21.9073 9.6974L21.797 9.807L20.7577 10.844L17.0627 14.5451L15.6543 15.9572L16.2779 16.5431C16.9821 15.9825 17.5845 16.3071 18.1615 16.8087C21.9158 20.5098 25.6447 24.2446 29.3821 27.9625C29.8148 28.5021 29.9761 29.0332 29.4967 29.636L30.0906 30.2515L31.8299 28.5105C33.1662 27.2164 32.8056 24.9696 31.4226 23.5996L28.4955 20.7163L30.6548 18.5539L30.7651 18.44L31.1766 18.0269C32.5129 16.7328 32.1523 14.486 30.7693 13.116L30.0779 12.4332V12.4205L29.204 11.569Z" fill="#0C0C0C"/>
<path id="Vector_2" fill-rule="evenodd" clip-rule="evenodd" d="M26.8463 38.1317C27.4233 38.6375 28.0257 38.9621 28.7299 38.4015L29.8498 37.2802C29.3068 37.0863 29.2347 36.9261 28.8444 36.5594L22.0569 29.8907L21.0811 30.8644C20.5169 31.581 20.886 32.2302 21.4332 32.7908L26.8506 38.1275L26.8463 38.1317ZM20.7418 38.431L21.9763 39.6703H21.989L22.6805 40.349C24.0719 41.7147 26.333 42.052 27.6269 40.7157L27.856 40.4881L28.0384 40.3026L28.1487 40.193L29.188 39.156L32.8788 35.4549L34.2872 34.0428L33.6636 33.4569C32.9594 34.0175 32.357 33.6929 31.78 33.1913C28.0257 29.4902 24.2967 25.7554 20.5593 22.0375C20.1266 21.4979 19.9654 20.9668 20.4448 20.364L19.8509 19.7485L18.1116 21.4895C16.7753 22.7836 17.1359 25.0304 18.5188 26.4004L21.446 29.2837L19.2867 31.4461L19.1764 31.5599L18.7649 31.9731C17.4286 33.2672 17.7892 35.5139 19.1721 36.8839L19.8636 37.5668V37.5795L20.7375 38.431H20.7418Z" fill="#0C0C0C"/>
</g>
</g>
</svg>
