<svg width="60" height="60" viewBox="0 0 60 60" fill="none" xmlns="http://www.w3.org/2000/svg">
<g id="Group 10">
<circle id="Ellipse 1" cx="29.9648" cy="30" r="29.8125" fill="white"/>
<g id="Group 9">
<path id="Vector" fill-rule="evenodd" clip-rule="evenodd" d="M27.7193 14.2419C27.027 13.6349 26.3041 13.2454 25.459 13.9182L24.1151 15.2637C24.7667 15.4964 24.8532 15.6886 25.3216 16.1287L33.4667 24.1311L34.6375 22.9626C35.3146 22.1027 34.8717 21.3237 34.215 20.6509L27.7142 14.247L27.7193 14.2419ZM35.0448 13.8828L33.5634 12.3956H33.5481L32.7183 11.5812C31.0486 9.94227 28.3353 9.5376 26.7826 11.1411L26.5077 11.4143L26.2888 11.6368L26.1564 11.7684L24.9092 13.0127L20.4753 17.454L18.7852 19.1486L19.5335 19.8517C20.3785 19.1789 21.1014 19.5684 21.7937 20.1704C26.299 24.6117 30.7737 29.0935 35.2586 33.555C35.7778 34.2025 35.9713 34.8398 35.396 35.5632L36.1087 36.3017L38.1959 34.2126C39.7994 32.6596 39.3667 29.9635 37.7072 28.3195L34.1946 24.8596L36.7858 22.2646L36.9181 22.128L37.4119 21.6323C39.0155 20.0793 38.5828 17.3832 36.9232 15.7392L36.0934 14.9198V14.9046L35.0448 13.8828Z" fill="#0C0C0C"/>
<path id="Vector_2" fill-rule="evenodd" clip-rule="evenodd" d="M32.2156 45.758C32.9079 46.365 33.6308 46.7545 34.4759 46.0817L35.8198 44.7362C35.1682 44.5035 35.0816 44.3112 34.6133 43.8712L26.4682 35.8687L25.2974 37.0372C24.6203 37.8972 25.0632 38.6762 25.7199 39.3489L32.2207 45.7529L32.2156 45.758ZM24.8901 46.1171L26.3715 47.6043H26.3868L27.2166 48.4187C28.8863 50.0576 31.5996 50.4623 33.1523 48.8588L33.4272 48.5856L33.6461 48.363L33.7784 48.2315L35.0256 46.9872L39.4545 42.5459L41.1446 40.8513L40.3963 40.1482C39.5513 40.8209 38.8284 40.4314 38.136 39.8295C33.6308 35.3882 29.1561 30.9064 24.6712 26.4449C24.152 25.7974 23.9585 25.1601 24.5338 24.4367L23.8211 23.6982L21.7339 25.7873C20.1303 27.3402 20.563 30.0364 22.2226 31.6804L25.7352 35.1403L23.144 37.7353L23.0117 37.8719L22.5179 38.3676C20.9143 39.9205 21.347 42.6167 23.0066 44.2607L23.8363 45.0801V45.0953L24.885 46.1171H24.8901Z" fill="#0C0C0C"/>
</g>
</g>
</svg>
