<svg width="64" height="64" viewBox="0 0 64 64" fill="none" xmlns="http://www.w3.org/2000/svg">
<g id="Group 10">
<circle id="Ellipse 1" cx="31.9629" cy="32" r="31.4688" fill="white"/>
<g id="Group 9">
<path id="Vector" fill-rule="evenodd" clip-rule="evenodd" d="M29.5926 15.3665C28.8618 14.7258 28.0987 14.3147 27.2067 15.0248L25.7881 16.4451C26.476 16.6907 26.5673 16.8936 27.0617 17.3581L35.6592 25.8051L36.8951 24.5717C37.6098 23.664 37.1423 22.8418 36.4491 22.1316L29.5872 15.3719L29.5926 15.3665ZM37.325 14.9874L35.7613 13.4176H35.7452L34.8693 12.558C33.1068 10.828 30.2428 10.4008 28.6039 12.0935L28.3137 12.3818L28.0826 12.6167L27.9429 12.7555L26.6264 14.069L21.9461 18.7571L20.1621 20.5458L20.952 21.288C21.844 20.5778 22.607 20.989 23.3378 21.6244C28.0934 26.3124 32.8167 31.0431 37.5507 35.7525C38.0988 36.436 38.303 37.1087 37.6958 37.8723L38.4481 38.6518L40.6512 36.4467C42.3439 34.8074 41.8871 31.9615 40.1354 30.2262L36.4277 26.574L39.1628 23.8349L39.3025 23.6907L39.8237 23.1675C41.5163 21.5283 41.0596 18.6823 39.3078 16.947L38.432 16.082V16.066L37.325 14.9874Z" fill="#0C0C0C"/>
<path id="Vector_2" fill-rule="evenodd" clip-rule="evenodd" d="M34.338 48.6334C35.0688 49.2741 35.8319 49.6853 36.7239 48.9751L38.1425 47.5548C37.4547 47.3092 37.3633 47.1063 36.8689 46.6418L28.2714 38.1948L27.0355 39.4282C26.3208 40.3359 26.7883 41.1582 27.4815 41.8683L34.3434 48.6281L34.338 48.6334ZM26.6056 49.0125L28.1693 50.5823H28.1854L29.0613 51.4419C30.8238 53.1719 33.6878 53.5991 35.3268 51.9065L35.6169 51.6181L35.848 51.3832L35.9877 51.2444L37.3042 49.9309L41.9791 45.2429L43.7631 43.4541L42.9732 42.712C42.0812 43.4221 41.3182 43.011 40.5874 42.3756C35.8319 37.6875 31.1086 32.9568 26.3745 28.2474C25.8264 27.564 25.6222 26.8912 26.2294 26.1276L25.4772 25.3481L23.274 27.5533C21.5814 29.1925 22.0381 32.0384 23.7899 33.7737L27.4976 37.4259L24.7625 40.165L24.6228 40.3092L24.1015 40.8325C22.4089 42.4717 22.8656 45.3176 24.6174 47.0529L25.4933 47.9179V47.9339L26.6002 49.0125H26.6056Z" fill="#0C0C0C"/>
</g>
</g>
</svg>
