<svg width="314" height="166" viewBox="0 0 314 166" fill="none" xmlns="http://www.w3.org/2000/svg">
<path d="M60.5536 103.04H5.05505V100.633C10.7704 100.633 24.3066 86.646 37.2412 67.5448C48.5214 51.151 60.5536 28.741 60.5536 15.3551H81.9108V100.633H93.6422V103.04H81.9108V120.186H60.5536V103.04ZM11.372 100.633H60.5536V28.5906C53.9359 49.0453 29.2699 88.6012 11.372 100.633ZM277.051 103.04H221.553V100.633C227.268 100.633 240.804 86.646 253.739 67.5448C265.019 51.151 277.051 28.741 277.051 15.3551H298.408V100.633H310.14V103.04H298.408V120.186H277.051V103.04ZM227.87 100.633H277.051V28.5906C270.434 49.0453 245.767 88.6012 227.87 100.633Z" fill="white"/>
<path fill-rule="evenodd" clip-rule="evenodd" d="M166.258 120.179C179.609 119.924 191.489 112.084 199.262 99.9548C210.776 92.5765 218.424 81.4978 219.389 68.9726C219.458 68.2595 219.493 67.5405 219.493 66.8163L219.493 66.7156C219.492 66.6693 219.492 66.623 219.492 66.5767L219.493 66.4269L219.493 66.2772L219.492 66.1087L219.493 66.0077C219.493 65.8727 219.491 65.7379 219.486 65.6034C219.231 52.2521 211.391 40.3724 199.262 32.5996C191.489 20.4702 179.609 12.6307 166.258 12.3751C166.124 12.3708 165.989 12.3687 165.854 12.3687L165.753 12.3691L165.584 12.3687C165.484 12.3687 165.385 12.3691 165.285 12.3699C165.205 12.3691 165.125 12.3687 165.045 12.3687C164.321 12.3687 163.602 12.4035 162.889 12.4722C150.364 13.4377 139.285 21.0859 131.907 32.5996C119.777 40.3724 111.938 52.2521 111.682 65.6034C111.678 65.7379 111.676 65.8727 111.676 66.0077L111.676 66.1087L111.676 66.2772C111.676 66.3771 111.676 66.4769 111.677 66.5767C111.676 66.6565 111.676 66.7364 111.676 66.8163C111.676 67.5405 111.711 68.2595 111.779 68.9726C112.745 81.4979 120.393 92.5765 131.907 99.9548C139.285 111.468 150.364 119.117 162.889 120.082C163.602 120.151 164.321 120.186 165.045 120.186L165.146 120.186C165.192 120.185 165.239 120.185 165.285 120.184L165.435 120.185L165.584 120.186L165.753 120.185L165.854 120.186C165.989 120.186 166.124 120.184 166.258 120.179ZM173.309 118.63C183.065 116.374 191.686 109.926 197.898 100.801C195.111 102.473 192.114 103.934 188.946 105.155C184.649 111.606 179.285 116.334 173.309 118.63ZM217.091 77.0314C214.3 85.5389 208.276 93.03 200.108 98.5908C201.521 96.2361 202.783 93.732 203.877 91.1011C209.905 87.2077 214.494 82.3998 217.091 77.0314ZM198.776 99.4685C200.316 97.0521 201.692 94.4628 202.883 91.7267C200.1 93.434 197.031 94.9522 193.727 96.2489C192.505 99.0991 191.113 101.757 189.574 104.187C192.852 102.865 195.934 101.28 198.776 99.4685ZM218.343 71.3498C216.834 78.4762 211.813 84.947 204.322 90C205.233 87.6787 206.015 85.2635 206.656 82.7691C212.368 79.5471 216.465 75.6443 218.343 71.3498ZM203.341 90.6445C204.319 88.2681 205.158 85.7864 205.846 83.2157C203.17 84.6568 200.164 85.9533 196.885 87.0778C196.107 89.9822 195.17 92.7576 194.093 95.3777C197.45 94.0199 200.552 92.4297 203.341 90.6445ZM218.814 66.3513C218.648 72.1132 214.307 77.5368 206.881 81.8637C208.071 76.9293 208.711 71.6967 208.711 66.2772C208.711 60.6268 208.016 55.1795 206.726 50.0617C213.395 53.9117 217.61 58.6403 218.596 63.7077C218.722 64.5804 218.795 65.4621 218.814 66.3513ZM208.037 66.2772C208.037 60.4458 207.292 54.8428 205.916 49.6051C205.114 49.1635 204.279 48.7342 203.412 48.318C201.407 47.3558 199.242 46.4691 196.936 45.668C198.618 52.0171 199.547 58.9777 199.547 66.2772C199.547 73.3501 198.675 80.1049 197.09 86.2935C199.338 85.5066 201.452 84.638 203.412 83.6973C204.337 83.2531 205.226 82.7939 206.078 82.3208C207.35 77.2642 208.037 71.876 208.037 66.2772ZM217.196 58.5119C215.001 55.0244 211.313 51.8478 206.49 49.1531C206.019 47.3963 205.479 45.6798 204.871 44.0089C210.736 48.0854 215.019 53.0477 217.196 58.5119ZM205.673 48.7072C205.163 46.8771 204.576 45.0933 203.916 43.3619C203.726 43.2362 203.534 43.1115 203.34 42.9876C200.694 41.2939 197.767 39.776 194.607 38.4653C195.4 40.5189 196.108 42.6618 196.723 44.8822C199.995 45.9955 202.997 47.2795 205.673 48.7072ZM217.937 58.553C215.642 52.5766 210.913 47.2125 204.462 42.9155C203.241 39.7471 201.78 36.7507 200.108 33.9636C209.233 40.1758 215.682 48.7969 217.937 58.553ZM203.495 42.2871C202.172 39.0091 200.587 35.9279 198.776 33.0859C195.934 31.2743 192.852 29.6895 189.574 28.367C191.343 31.1609 192.918 34.2555 194.264 37.5973C197.606 38.9436 200.701 40.5183 203.495 42.2871ZM173.309 13.9247C183.065 16.18 191.686 22.6287 197.898 31.7537C195.111 30.0814 192.114 28.6201 188.946 27.3993C184.649 20.9484 179.285 16.2199 173.309 13.9247ZM173.35 14.6652C178.814 16.8427 183.776 21.1259 187.853 26.9901C186.182 26.383 184.465 25.8421 182.708 25.3716C180.014 20.5482 176.837 16.8606 173.35 14.6652ZM183.154 26.1884C184.984 26.6984 186.768 27.2857 188.5 27.9455C188.625 28.1359 188.75 28.3279 188.874 28.5213C190.568 31.1678 192.086 34.0948 193.396 37.2548C191.343 36.4618 189.2 35.7539 186.979 35.1388C185.866 31.8666 184.582 28.8644 183.154 26.1884ZM187.237 35.9109C189.494 36.5518 191.668 37.2895 193.746 38.1156C194.572 40.1932 195.31 42.367 195.951 44.6243C193.787 43.9151 191.51 43.2795 189.136 42.7252C188.582 40.3511 187.946 38.0744 187.237 35.9109ZM189.304 43.4569C191.7 44.0261 193.994 44.6785 196.168 45.4061C197.908 51.8108 198.873 58.864 198.873 66.2772C198.873 73.4626 197.966 80.3098 196.326 86.5561C194.143 87.2922 191.839 87.9525 189.43 88.5284C190.745 82.4896 191.541 75.8562 191.7 68.875C191.809 67.9338 191.865 66.9771 191.865 66.0077C191.865 64.9865 191.803 63.9796 191.683 62.99C191.482 56.0422 190.65 49.4492 189.304 43.4569ZM190.81 58.8329C190.443 53.3354 189.676 48.1095 188.575 43.287C182.619 41.9263 176.049 41.0765 169.111 40.8602C179.464 42.0998 187.932 49.2966 190.81 58.8329ZM191.01 63.0427C189.51 50.8309 178.862 41.3445 165.921 41.3445C152.03 41.3445 140.781 52.2753 140.653 65.7742C140.652 65.8804 140.652 65.9867 140.652 66.0931C140.699 79.6601 151.979 90.6708 165.921 90.6708C178.914 90.6708 189.595 81.1086 191.028 68.8266C191.047 67.9819 191.056 67.1319 191.056 66.2772C191.056 65.191 191.041 64.1125 191.01 63.0427ZM190.853 73.0365C188.018 82.6453 179.517 89.9092 169.111 91.1551C176.098 90.9372 182.713 90.0768 188.702 88.699C189.78 83.834 190.519 78.569 190.853 73.0365ZM162.939 91.1791C155.848 91.0137 149.125 90.1868 143.034 88.8276C141.901 83.7508 141.138 78.2358 140.82 72.4339C143.488 82.4049 152.222 89.9813 162.939 91.1791ZM139.978 66.0938C139.978 66.1549 139.978 66.216 139.978 66.2772C139.978 74.2635 140.811 81.8442 142.307 88.6623C139.248 87.9526 136.354 87.1078 133.658 86.1447C132.085 80.0096 131.218 73.3052 131.218 66.2772C131.218 59.0216 132.142 52.1109 133.813 45.8154C136.502 44.862 139.387 44.0259 142.434 43.3238C140.891 50.1441 140.014 57.7473 139.979 65.7692C139.978 65.8486 139.978 65.9281 139.978 66.0077C139.978 66.0364 139.978 66.0651 139.978 66.0938ZM140.859 59.4345C141.212 53.6676 142.005 48.1924 143.163 43.1591C149.22 41.817 155.897 41.0005 162.939 40.8362C152.274 42.0282 143.574 49.5361 140.859 59.4345ZM189.267 89.2594C191.655 88.6981 193.943 88.0545 196.116 87.3364C195.308 90.2798 194.336 93.085 193.218 95.724C191.177 96.5148 189.046 97.2209 186.835 97.8344C187.767 95.1513 188.583 92.2824 189.267 89.2594ZM186.562 98.6081C188.732 98.0208 190.83 97.345 192.845 96.5879C191.665 99.2581 190.335 101.75 188.874 104.033C188.75 104.227 188.625 104.419 188.5 104.609C186.768 105.269 184.984 105.856 183.154 106.366C184.407 104.018 185.549 101.42 186.562 98.6081ZM182.708 107.183C184.465 106.712 186.182 106.171 187.853 105.564C183.776 111.428 178.814 115.712 173.35 117.889C176.837 115.694 180.014 112.006 182.708 107.183ZM183.544 104.105C183.127 104.972 182.698 105.807 182.256 106.609C177.019 107.985 171.416 108.73 165.584 108.73C159.986 108.73 154.597 108.043 149.541 106.771C149.068 105.919 148.608 105.03 148.164 104.105C147.391 102.493 146.666 100.778 145.995 98.9693C152.067 100.486 158.674 101.318 165.584 101.318C172.721 101.318 179.534 100.43 185.768 98.8181C185.082 100.682 184.339 102.449 183.544 104.105ZM165.584 109.404C160.165 109.404 154.932 108.764 149.998 107.574C154.325 115 159.748 119.341 165.51 119.507C166.399 119.488 167.281 119.415 168.154 119.289C173.221 118.303 177.95 114.088 181.8 107.419C176.682 108.709 171.235 109.404 165.584 109.404ZM145.203 98.7668C146.227 101.586 147.381 104.19 148.646 106.538C146.075 105.851 143.593 105.012 141.217 104.034C139.664 101.608 138.259 98.9452 137.026 96.0842C139.613 97.1202 142.347 98.0197 145.203 98.7668ZM149.092 107.349C146.598 106.708 144.183 105.926 141.861 105.015C146.915 112.506 153.385 117.527 160.512 119.036C156.217 117.158 152.314 113.061 149.092 107.349ZM136.14 95.7216C137.315 98.5325 138.654 101.162 140.135 103.576C137.399 102.385 134.809 101.009 132.393 99.4685C130.853 97.0521 129.476 94.4628 128.286 91.7267C130.7 93.2077 133.329 94.5463 136.14 95.7216ZM140.76 104.57C138.129 103.476 135.625 102.214 133.271 100.801C138.832 108.969 146.323 114.993 154.83 117.784C149.462 115.187 144.654 110.598 140.76 104.57ZM127.292 91.1011C128.386 93.7321 129.648 96.2361 131.061 98.5908C122.893 93.03 116.869 85.539 114.078 77.0314C116.674 82.3998 121.263 87.2077 127.292 91.1011ZM127.828 90.6445C126.85 88.2681 126.01 85.7864 125.323 83.2157C127.672 84.4808 130.275 85.6345 133.095 86.6581C133.842 89.5147 134.741 92.2487 135.777 94.8356C132.916 93.6025 130.254 92.1972 127.828 90.6445ZM126.847 90C125.935 87.6787 125.153 85.2635 124.513 82.7692C118.8 79.5471 114.704 75.6444 112.826 71.3499C114.335 78.4762 119.355 84.947 126.847 90ZM127.757 83.6973C126.831 83.2531 125.942 82.7939 125.091 82.3208C123.818 77.2642 123.131 71.876 123.131 66.2772C123.131 60.4458 123.877 54.8428 125.253 49.6051C126.055 49.1635 126.89 48.7342 127.757 48.318C129.413 47.523 131.179 46.7796 133.043 46.0934C131.431 52.3276 130.544 59.1404 130.544 66.2772C130.544 73.1876 131.376 79.7943 132.892 85.8661C131.084 85.1955 129.368 84.4708 127.757 83.6973ZM122.457 66.2772C122.457 60.6268 123.153 55.1795 124.443 50.0617C117.774 53.9117 113.558 58.6403 112.573 63.7076C112.447 64.5804 112.374 65.4621 112.355 66.3513C112.521 72.1133 116.862 77.5368 124.288 81.8637C123.097 76.9293 122.457 71.6967 122.457 66.2772ZM133.253 45.2998C130.442 46.3128 127.843 47.4547 125.496 48.7072C126.005 46.8771 126.593 45.0934 127.253 43.3619C127.443 43.2362 127.635 43.1115 127.828 42.9876C130.112 41.5264 132.603 40.1961 135.274 39.0168C134.517 41.0311 133.841 43.1292 133.253 45.2998ZM124.679 49.1531C125.149 47.3963 125.69 45.6798 126.297 44.0089C120.433 48.0854 116.15 53.0477 113.972 58.5119C116.168 55.0244 119.855 51.8478 124.679 49.1531ZM135.613 38.1343C132.762 39.3567 130.105 40.7484 127.674 42.2871C128.997 39.0091 130.581 35.9279 132.393 33.0859C134.809 31.5456 137.399 30.1693 140.135 28.9787C138.428 31.7618 136.909 34.8305 135.613 38.1343ZM126.706 42.9155C127.927 39.747 129.389 36.7507 131.061 33.9636C121.936 40.1758 115.487 48.7969 113.232 58.553C115.527 52.5766 120.255 47.2125 126.706 42.9155ZM140.76 27.9848C138.129 29.0786 135.625 30.3408 133.271 31.7537C138.832 23.5855 146.323 17.5618 154.83 14.7707C149.462 17.3671 144.654 21.9562 140.76 27.9848ZM141.217 28.5207C143.593 27.5428 146.075 26.7034 148.646 26.016C147.205 28.6912 145.908 31.6972 144.784 34.9768C141.879 35.7549 139.104 36.6911 136.484 37.7684C137.842 34.4115 139.432 31.31 141.217 28.5207ZM141.861 27.5398C144.183 26.6283 146.598 25.8464 149.092 25.2059C152.314 19.4931 156.217 15.3968 160.512 13.5188C153.385 15.0276 146.915 20.0483 141.861 27.5398ZM148.164 28.4497C148.608 27.5243 149.068 26.6351 149.541 25.7838C154.597 24.5113 159.986 23.8242 165.584 23.8242C171.416 23.8242 177.019 24.5696 182.256 25.9454C182.698 26.7475 183.127 27.5827 183.544 28.4497C184.506 30.4543 185.392 32.6199 186.194 34.9258C179.844 33.2433 172.884 32.3148 165.584 32.3148C158.511 32.3148 151.757 33.1866 145.568 34.7713C146.355 32.5231 147.224 30.4095 148.164 28.4497ZM165.584 23.1504C171.235 23.1504 176.682 23.8458 181.8 25.1355C177.95 18.4665 173.221 14.2512 168.154 13.2655C167.281 13.1397 166.399 13.0664 165.51 13.0475C159.748 13.2137 154.325 17.5545 149.998 24.9804C154.932 23.7901 160.165 23.1504 165.584 23.1504ZM165.584 32.9887C172.998 32.9887 180.051 33.9537 186.455 35.6938C187.183 37.8677 187.835 40.1611 188.405 42.5576C181.475 41.0011 173.741 40.1316 165.584 40.1316C157.65 40.1316 150.116 40.9543 143.333 42.4317C143.909 40.0227 144.569 37.7183 145.305 35.5356C151.552 33.8953 158.399 32.9887 165.584 32.9887ZM165.584 91.8838C173.793 91.8838 181.574 91.0031 188.538 89.4277C187.836 92.4747 187 95.3595 186.046 98.0487C179.751 99.7194 172.84 100.644 165.584 100.644C158.556 100.644 151.852 99.7765 145.717 98.2037C144.754 95.5076 143.909 92.6132 143.199 89.5544C150.017 91.0502 157.598 91.8838 165.584 91.8838ZM142.47 89.3913C143.163 92.4268 143.988 95.3062 144.929 97.9971C142.031 97.2193 139.264 96.2831 136.656 95.206C135.578 92.5974 134.642 89.8307 133.864 86.9325C136.555 87.8739 139.435 88.6987 142.47 89.3913ZM142.602 42.5941C139.579 43.279 136.71 44.0947 134.027 45.0261C134.641 42.816 135.347 40.6843 136.138 38.6432C138.777 37.5256 141.582 36.5534 144.525 35.7452C143.807 37.9183 143.163 40.2066 142.602 42.5941Z" fill="url(#paint0_linear_383_5522)"/>
<defs>
<linearGradient id="paint0_linear_383_5522" x1="123.805" y1="27.8674" x2="200.625" y2="118.838" gradientUnits="userSpaceOnUse">
<stop stop-color="white"/>
<stop offset="0.376612" stop-color="white"/>
<stop offset="1" stop-color="white" stop-opacity="0"/>
</linearGradient>
</defs>
</svg>
