<svg width="60" height="60" viewBox="0 0 60 60" fill="none" xmlns="http://www.w3.org/2000/svg">
<g id="Group 10">
<circle id="Ellipse 1" cx="29.75" cy="29.75" r="29.75" fill="white"/>
<g id="Group 9">
<path id="Vector" fill-rule="evenodd" clip-rule="evenodd" d="M27.5091 14.0245C26.8183 13.4188 26.0969 13.0301 25.2536 13.7014L23.9125 15.0442C24.5627 15.2764 24.6491 15.4682 25.1165 15.9073L33.2445 23.893L34.4129 22.7269C35.0885 21.8688 34.6465 21.0914 33.9912 20.4201L27.5041 14.0295L27.5091 14.0245ZM34.8193 13.6661L33.341 12.182H33.3257L32.4977 11.3693C30.8315 9.73385 28.1238 9.33003 26.5744 10.9302L26.3001 11.2028L26.0817 11.4249L25.9496 11.5561L24.705 12.7979L20.2803 17.2299L18.5938 18.9209L19.3405 19.6225C20.1838 18.9512 20.9051 19.3398 21.596 19.9405C26.0918 24.3725 30.5571 28.8449 35.0326 33.2971C35.5508 33.9432 35.7438 34.5792 35.1698 35.301L35.881 36.038L37.9638 33.9533C39.564 32.4036 39.1322 29.7131 37.4761 28.0726L33.9709 24.6199L36.5566 22.0303L36.6887 21.894L37.1815 21.3994C38.7817 19.8497 38.3499 17.1592 36.6938 15.5187L35.8657 14.7009V14.6858L34.8193 13.6661Z" fill="#0C0C0C"/>
<path id="Vector_2" fill-rule="evenodd" clip-rule="evenodd" d="M31.9962 45.4745C32.6871 46.0802 33.4084 46.4689 34.2517 45.7975L35.5928 44.4548C34.9426 44.2226 34.8562 44.0308 34.3889 43.5916L26.2609 35.606L25.0925 36.772C24.4168 37.6302 24.8588 38.4075 25.5141 39.0789L32.0013 45.4694L31.9962 45.4745ZM24.6861 45.8329L26.1644 47.3169H26.1796L27.0076 48.1296C28.6739 49.7651 31.3815 50.1689 32.9309 48.5688L33.2052 48.2962L33.4237 48.0741L33.5558 47.9428L34.8004 46.7011L39.22 42.2691L40.9065 40.5781L40.1598 39.8764C39.3165 40.5478 38.5951 40.1591 37.9042 39.5584C33.4084 35.1264 28.9431 30.6541 24.4676 26.2019C23.9495 25.5558 23.7564 24.9198 24.3305 24.1979L23.6193 23.4609L21.5365 25.5457C19.9363 27.0954 20.3681 29.7859 22.0242 31.4264L25.5294 34.8791L22.9436 37.4686L22.8116 37.6049L22.3188 38.0996C20.7186 39.6493 21.1504 42.3398 22.8065 43.9803L23.6345 44.7981V44.8132L24.681 45.8329H24.6861Z" fill="#0C0C0C"/>
</g>
</g>
</svg>
