<svg viewBox="0 0 67 14" fill="none" xmlns="http://www.w3.org/2000/svg">
<path d="M28.0667 10.4166H22.3739L29.6417 1.06903C29.8001 0.863775 29.7561 0.564447 29.5449 0.410507C29.4657 0.350642 29.3602 0.316432 29.2546 0.316432H18.74C17.8161 0.316432 17.0594 1.05192 17.0594 1.94991C17.0594 2.84789 17.8161 3.58338 18.74 3.58338H23.4649L16.1707 12.9395C16.0035 13.1448 16.0475 13.4356 16.2587 13.598C16.3467 13.6665 16.4523 13.7007 16.5579 13.6921H28.0579C28.9818 13.6494 29.6945 12.8797 29.6505 11.9731C29.6065 11.135 28.9202 10.4679 28.0579 10.4252V10.4166H28.0667ZM64.8106 0.316432C63.8868 0.316432 63.13 1.05192 63.13 1.94991V7.43189L54.0497 0.427611C53.8473 0.265119 53.5393 0.290776 53.3722 0.49603C53.3018 0.581552 53.2666 0.684179 53.2666 0.795358V12.0586C53.2666 12.9566 54.0233 13.6921 54.9471 13.6921C55.871 13.6921 56.6277 12.9652 56.6277 12.0586V6.57666L65.7081 13.5895C65.9193 13.752 66.2272 13.7178 66.3944 13.5125C66.4648 13.427 66.5 13.3244 66.5 13.2217V1.94991C66.4912 1.04337 65.7433 0.316432 64.8106 0.316432ZM40.781 10.7245C36.9359 10.7245 34.0675 8.75748 34.0675 6.99572C34.0675 5.23396 36.9447 3.26695 40.781 3.26695C44.6261 3.26695 47.4945 5.23396 47.4945 6.99572C47.4945 8.75748 44.6349 10.7245 40.781 10.7245ZM40.781 0C35.2202 0 30.7064 3.13012 30.7064 6.99572C30.7064 10.8613 35.2202 13.9914 40.781 13.9914C46.3419 13.9914 50.8557 10.8613 50.8557 6.99572C50.8557 3.13012 46.3419 0 40.781 0ZM7.70624 10.733C5.58572 10.733 3.86115 9.06536 3.86115 7.00428C3.86115 4.94319 5.57692 3.26695 7.69744 3.26695C9.81796 3.26695 11.5425 4.93464 11.5425 6.99572V7.00428C11.5425 9.05681 9.82676 10.7245 7.70624 10.733ZM7.70624 0C3.72917 0 0.508799 3.13012 0.5 6.99572C0.5 10.8613 3.72037 13.9914 7.69744 14C11.6745 14 14.8949 10.8699 14.9037 7.00428V6.99572C14.8949 3.13012 11.6745 0 7.70624 0Z" fill="#0C0C0C" />
</svg>
